<svg width="17" height="17" viewBox="0 0 17 17" fill="none" xmlns="http://www.w3.org/2000/svg">
<g clip-path="url(#clip0)">
<path d="M15.6058 4.13589H2.81609L5.2109 1.74104C5.49492 1.45706 5.49492 0.996553 5.2109 0.71253C4.92692 0.428506 4.46641 0.428506 4.18239 0.71253L0.546026 4.34889C0.262002 4.63286 0.262002 5.09337 0.546026 5.37739L4.18239 9.01375C4.3244 9.15576 4.51054 9.22679 4.69667 9.22679C4.8828 9.22679 5.06894 9.15576 5.2109 9.01375C5.49492 8.72978 5.49492 8.26927 5.2109 7.98525L2.81609 5.59044H15.6058C16.0074 5.59044 16.333 5.26481 16.333 4.86317C16.333 4.46152 16.0074 4.13589 15.6058 4.13589Z" fill="#303234"/>
<path d="M12.4841 7.98569C12.2001 7.70171 11.7396 7.70171 11.4556 7.98569C11.1716 8.26966 11.1716 8.73017 11.4556 9.0142L13.8504 11.4091H1.06077C0.65912 11.4091 0.333496 11.7347 0.333496 12.1363C0.333496 12.538 0.65912 12.8636 1.06077 12.8636H13.8504L11.4556 15.2585C11.1716 15.5425 11.1716 16.003 11.4556 16.287C11.5976 16.429 11.7837 16.5 11.9699 16.5C12.156 16.5 12.3421 16.429 12.4841 16.2869L16.1205 12.6506C16.4045 12.3666 16.4045 11.9061 16.1205 11.6221L12.4841 7.98569Z" fill="#303234"/>
</g>
<defs>
<clipPath id="clip0">
<rect width="16" height="16" fill="white" transform="translate(0.333496 0.5)"/>
</clipPath>
</defs>
</svg>
