<svg width="127" height="30" viewBox="0 0 127 30" fill="none" xmlns="http://www.w3.org/2000/svg">
<path d="M44.0112 24.1504C41.7016 24.1504 39.8927 23.5916 38.5845 22.474C37.2924 21.3402 36.606 19.7042 36.5252 17.5661C36.5091 17.1288 36.501 16.4161 36.501 15.428C36.501 14.4238 36.5091 13.6949 36.5252 13.2413C36.606 11.1356 37.3085 9.51587 38.6329 8.38203C39.9573 7.232 41.75 6.65698 44.0112 6.65698C45.4325 6.65698 46.7084 6.89995 47.839 7.38588C48.9695 7.85561 49.8578 8.53591 50.5039 9.42678C51.1661 10.3015 51.5052 11.33 51.5214 12.5124V12.561C51.5214 12.6906 51.4649 12.804 51.3518 12.9012C51.2549 12.9822 51.1418 13.0227 51.0126 13.0227H47.7421C47.5321 13.0227 47.3706 12.9822 47.2575 12.9012C47.1445 12.804 47.0476 12.6339 46.9668 12.391C46.7407 11.5649 46.3854 10.9899 45.9008 10.6659C45.4163 10.3257 44.7784 10.1557 43.987 10.1557C42.0811 10.1557 41.0959 11.2247 41.0313 13.3628C41.0152 13.8001 41.0071 14.4723 41.0071 15.3794C41.0071 16.2865 41.0152 16.9749 41.0313 17.4446C41.0959 19.5827 42.0811 20.6518 43.987 20.6518C44.7784 20.6518 45.4244 20.4817 45.9251 20.1415C46.4258 19.7852 46.773 19.2102 46.9668 18.4165C47.0314 18.1735 47.1202 18.0115 47.2333 17.9305C47.3464 17.8334 47.5159 17.7848 47.7421 17.7848H51.0126C51.158 17.7848 51.2791 17.8334 51.376 17.9305C51.4891 18.0277 51.5375 18.1492 51.5214 18.295C51.5052 19.4774 51.1661 20.5141 50.5039 21.4049C49.8578 22.2796 48.9695 22.9599 47.839 23.4458C46.7084 23.9156 45.4325 24.1504 44.0112 24.1504Z" fill="black"/>
<path d="M54.4079 23.9075C54.2464 23.9075 54.1011 23.8508 53.9719 23.7374C53.8588 23.6078 53.8023 23.462 53.8023 23.3001V7.26439C53.8023 7.08622 53.8588 6.94044 53.9719 6.82706C54.1011 6.71367 54.2464 6.65698 54.4079 6.65698H57.5089C57.6866 6.65698 57.8319 6.71367 57.945 6.82706C58.0581 6.94044 58.1146 7.08622 58.1146 7.26439V12.6825C59.0836 11.5811 60.3596 11.0303 61.9424 11.0303C62.8791 11.0303 63.7109 11.2409 64.4377 11.6621C65.1806 12.0832 65.7621 12.7068 66.182 13.5329C66.6019 14.359 66.8119 15.3551 66.8119 16.5214V23.3001C66.8119 23.462 66.7554 23.6078 66.6423 23.7374C66.5292 23.8508 66.3839 23.9075 66.2062 23.9075H63.081C62.9195 23.9075 62.7741 23.8508 62.6449 23.7374C62.5319 23.6078 62.4753 23.462 62.4753 23.3001V16.6671C62.4753 15.9058 62.2896 15.3227 61.9181 14.9178C61.5628 14.4966 61.0379 14.2861 60.3434 14.2861C59.6489 14.2861 59.0998 14.4966 58.696 14.9178C58.3084 15.3227 58.1146 15.9058 58.1146 16.6671V23.3001C58.1146 23.4782 58.0581 23.624 57.945 23.7374C57.8319 23.8508 57.6866 23.9075 57.5089 23.9075H54.4079Z" fill="black"/>
<path d="M73.3383 24.1504C72.4823 24.1504 71.6989 23.9885 70.9883 23.6645C70.2938 23.3244 69.7447 22.8708 69.3409 22.3039C68.9533 21.7208 68.7595 21.081 68.7595 20.3845C68.7595 19.2669 69.2117 18.3679 70.1161 17.6876C71.0368 17.0073 72.2965 16.5375 73.8955 16.2784L76.9238 15.8168V15.4766C76.9238 14.8611 76.7946 14.4076 76.5362 14.116C76.2777 13.8244 75.8417 13.6787 75.2279 13.6787C74.8565 13.6787 74.5496 13.7435 74.3073 13.873C74.0651 14.0026 73.8147 14.1808 73.5563 14.4076C73.3302 14.6019 73.1606 14.7315 73.0475 14.7963C72.9991 14.9259 72.9103 14.9907 72.7811 14.9907H70.1404C69.9789 14.9907 69.8416 14.9421 69.7285 14.8449C69.6316 14.7315 69.5912 14.6019 69.6074 14.4562C69.6235 14.0188 69.8335 13.5329 70.2373 12.9984C70.6572 12.4638 71.2871 12.0022 72.1269 11.6135C72.9829 11.2247 74.0328 11.0303 75.2764 11.0303C77.263 11.0303 78.7327 11.4758 79.6856 12.3667C80.6385 13.2413 81.115 14.4238 81.115 15.9139V23.3001C81.115 23.462 81.0584 23.6078 80.9454 23.7374C80.8323 23.8508 80.687 23.9075 80.5093 23.9075H77.699C77.5375 23.9075 77.3922 23.8508 77.263 23.7374C77.1499 23.6078 77.0934 23.462 77.0934 23.3001V22.4497C76.738 22.9518 76.2374 23.3649 75.5913 23.6888C74.9614 23.9966 74.2104 24.1504 73.3383 24.1504ZM74.4769 21.3806C75.2199 21.3806 75.8174 21.1377 76.2697 20.6518C76.738 20.1658 76.9722 19.4531 76.9722 18.5137V18.1735L74.913 18.538C73.4594 18.7971 72.7326 19.3073 72.7326 20.0686C72.7326 20.4736 72.9022 20.7975 73.2414 21.0405C73.5805 21.2673 73.9924 21.3806 74.4769 21.3806Z" fill="black"/>
<path d="M84.4544 23.9075C84.2768 23.9075 84.1314 23.8508 84.0183 23.7374C83.9053 23.624 83.8488 23.4782 83.8488 23.3001V11.8807C83.8488 11.7025 83.9053 11.5568 84.0183 11.4434C84.1314 11.33 84.2768 11.2733 84.4544 11.2733H87.2405C87.4181 11.2733 87.5635 11.33 87.6765 11.4434C87.8058 11.5568 87.8704 11.7025 87.8704 11.8807V12.804C88.3064 12.2695 88.8636 11.8402 89.542 11.5163C90.2365 11.1923 91.0198 11.0303 91.892 11.0303C93.3132 11.0303 94.468 11.5163 95.3563 12.4881C96.2446 13.4438 96.6888 14.7882 96.6888 16.5214V23.3001C96.6888 23.462 96.6323 23.6078 96.5192 23.7374C96.4062 23.8508 96.2608 23.9075 96.0831 23.9075H93.0306C92.8691 23.9075 92.7237 23.8508 92.5945 23.7374C92.4815 23.6078 92.4249 23.462 92.4249 23.3001V16.6671C92.4249 15.9058 92.2392 15.3227 91.8677 14.9178C91.4963 14.4966 90.9633 14.2861 90.2688 14.2861C89.5904 14.2861 89.0575 14.4966 88.6698 14.9178C88.2822 15.3227 88.0884 15.9058 88.0884 16.6671V23.3001C88.0884 23.462 88.0319 23.6078 87.9188 23.7374C87.8058 23.8508 87.6604 23.9075 87.4827 23.9075H84.4544Z" fill="black"/>
<path d="M105.594 29.2527C104.06 29.2527 102.816 29.0016 101.863 28.4995C100.91 27.9974 100.224 27.4224 99.8038 26.7745C99.4 26.1266 99.1981 25.5839 99.1981 25.1466C99.1981 25.0008 99.2627 24.8712 99.3919 24.7579C99.5211 24.6445 99.6665 24.5878 99.828 24.5878H102.905C103.066 24.5878 103.187 24.6202 103.268 24.685C103.365 24.766 103.454 24.8955 103.535 25.0737C103.696 25.4463 103.914 25.7378 104.189 25.9484C104.463 26.1751 104.891 26.2885 105.473 26.2885C106.216 26.2885 106.765 26.1023 107.12 25.7297C107.476 25.3734 107.653 24.766 107.653 23.9075V22.2796C106.829 23.1867 105.65 23.6402 104.116 23.6402C102.485 23.6402 101.233 23.1624 100.361 22.2067C99.505 21.2349 99.0366 19.8338 98.9559 18.0034L98.9316 17.3474C98.9316 15.3875 99.3677 13.8487 100.24 12.7311C101.112 11.5973 102.404 11.0303 104.116 11.0303C104.94 11.0303 105.667 11.1923 106.296 11.5163C106.926 11.824 107.459 12.2452 107.895 12.7797V11.8807C107.895 11.7025 107.952 11.5568 108.065 11.4434C108.194 11.33 108.34 11.2733 108.501 11.2733H111.287C111.465 11.2733 111.61 11.3381 111.723 11.4677C111.852 11.5811 111.917 11.7187 111.917 11.8807V23.5673C111.917 25.4139 111.368 26.8231 110.27 27.7949C109.171 28.7668 107.613 29.2527 105.594 29.2527ZM105.424 20.4817C106.151 20.4817 106.692 20.263 107.048 19.8257C107.403 19.3721 107.605 18.8052 107.653 18.1249C107.669 18.0115 107.677 17.7605 107.677 17.3717C107.677 16.9992 107.669 16.7562 107.653 16.6428C107.621 15.9625 107.419 15.4037 107.048 14.9664C106.692 14.5128 106.151 14.2861 105.424 14.2861C104.665 14.2861 104.116 14.5128 103.777 14.9664C103.438 15.4199 103.252 16.0435 103.22 16.8372L103.195 17.3717C103.195 18.3274 103.357 19.0887 103.68 19.6556C104.003 20.2063 104.584 20.4817 105.424 20.4817Z" fill="black"/>
<path d="M120.585 24.1504C118.647 24.1504 117.121 23.624 116.006 22.5712C114.892 21.5183 114.31 19.9876 114.262 17.9791V17.1288C114.326 15.2174 114.916 13.7273 116.03 12.6582C117.161 11.573 118.671 11.0303 120.561 11.0303C121.934 11.0303 123.088 11.3138 124.025 11.8807C124.978 12.4314 125.689 13.1927 126.157 14.1646C126.642 15.1365 126.884 16.2541 126.884 17.5175V18.1006C126.884 18.2626 126.827 18.4084 126.714 18.538C126.601 18.6513 126.456 18.708 126.278 18.708H118.526V18.8781C118.558 19.6394 118.744 20.2549 119.083 20.7246C119.422 21.1944 119.915 21.4292 120.561 21.4292C120.965 21.4292 121.296 21.3483 121.554 21.1863C121.812 21.0081 122.047 20.7975 122.257 20.5546C122.402 20.3764 122.515 20.2711 122.596 20.2387C122.693 20.1901 122.838 20.1658 123.032 20.1658H126.036C126.181 20.1658 126.302 20.2144 126.399 20.3116C126.512 20.3926 126.569 20.506 126.569 20.6518C126.569 21.0729 126.327 21.5588 125.842 22.1095C125.374 22.6603 124.687 23.1381 123.783 23.543C122.878 23.948 121.812 24.1504 120.585 24.1504ZM122.62 16.3027V16.2541C122.62 15.4604 122.434 14.8368 122.063 14.3833C121.707 13.9135 121.207 13.6787 120.561 13.6787C119.931 13.6787 119.43 13.9135 119.059 14.3833C118.703 14.8368 118.526 15.4604 118.526 16.2541V16.3027H122.62Z" fill="black"/>
<path fill-rule="evenodd" clip-rule="evenodd" d="M26.948 6.08704C28.061 7.5856 28.8763 9.26938 29.3639 11.0474C29.948 13.1779 28.105 14.9999 25.8959 14.9999L23.8147 14.9999C21.6055 14.9999 19.8792 12.9399 18.2615 11.4354C17.3926 10.6274 16.228 10.1332 14.9479 10.1332C12.2601 10.1332 10.0811 12.3121 10.0811 15C10.0811 17.6878 12.2601 19.8667 14.9479 19.8667C16.0186 19.8667 17.1728 20.2871 17.5881 21.274L19.1943 25.0908C20.0511 27.127 19.0866 29.5324 16.8963 29.8204C15.0684 30.0607 13.2002 29.9623 11.3872 29.5176C8.26918 28.7528 5.48021 27.0045 3.43309 24.5314C1.38596 22.0583 0.189466 18.9918 0.0206803 15.7858C-0.148106 12.5798 0.719789 9.40464 2.49591 6.73025C4.27204 4.05586 6.86201 2.02437 9.8825 0.936438C12.903 -0.151495 16.1935 -0.238052 19.267 0.689577C22.3405 1.61721 25.0337 3.50972 26.948 6.08704Z" fill="#C4C4C4"/>
<path fill-rule="evenodd" clip-rule="evenodd" d="M26.948 6.08704C28.061 7.5856 28.8763 9.26938 29.3639 11.0474C29.948 13.1779 28.105 14.9999 25.8959 14.9999L23.8147 14.9999C21.6055 14.9999 19.8792 12.9399 18.2615 11.4354C17.3926 10.6274 16.228 10.1332 14.9479 10.1332C12.2601 10.1332 10.0811 12.3121 10.0811 15C10.0811 17.6878 12.2601 19.8667 14.9479 19.8667C16.0186 19.8667 17.1728 20.2871 17.5881 21.274L19.1943 25.0908C20.0511 27.127 19.0866 29.5324 16.8963 29.8204C15.0684 30.0607 13.2002 29.9623 11.3872 29.5176C8.26918 28.7528 5.48021 27.0045 3.43309 24.5314C1.38596 22.0583 0.189466 18.9918 0.0206803 15.7858C-0.148106 12.5798 0.719789 9.40464 2.49591 6.73025C4.27204 4.05586 6.86201 2.02437 9.8825 0.936438C12.903 -0.151495 16.1935 -0.238052 19.267 0.689577C22.3405 1.61721 25.0337 3.50972 26.948 6.08704Z" fill="url(#paint0_linear)"/>
<defs>
<linearGradient id="paint0_linear" x1="14.7366" y1="0.052002" x2="14.7366" y2="29.9479" gradientUnits="userSpaceOnUse">
<stop stop-color="#5FD9F9"/>
<stop offset="1" stop-color="#5771F0"/>
</linearGradient>
</defs>
</svg>
