<svg width="127" height="30" fill="none" xmlns="http://www.w3.org/2000/svg"><path d="M44.011 24.15c-2.31 0-4.118-.558-5.427-1.676-1.292-1.134-1.978-2.77-2.059-4.908a65.7 65.7 0 01-.024-2.138c0-1.004.008-1.733.024-2.187.081-2.105.784-3.725 2.108-4.859 1.324-1.15 3.117-1.725 5.378-1.725 1.421 0 2.697.243 3.828.729 1.13.47 2.019 1.15 2.665 2.04.662.876 1.001 1.904 1.017 3.086v.049c0 .13-.056.243-.17.34a.513.513 0 01-.338.122h-3.27c-.21 0-.372-.04-.486-.122-.112-.097-.21-.267-.29-.51-.226-.826-.582-1.401-1.066-1.725-.485-.34-1.123-.51-1.914-.51-1.906 0-2.891 1.069-2.956 3.207-.016.437-.024 1.11-.024 2.016 0 .908.008 1.596.024 2.066.065 2.138 1.05 3.207 2.956 3.207.791 0 1.437-.17 1.938-.51.5-.357.848-.932 1.042-1.726.064-.242.153-.404.266-.486.113-.097.283-.145.51-.145h3.27c.145 0 .266.048.363.145a.398.398 0 01.145.365c-.016 1.182-.355 2.22-1.017 3.11-.646.875-1.535 1.555-2.665 2.04-1.13.47-2.407.705-3.828.705zm10.397-.243a.644.644 0 01-.436-.17.648.648 0 01-.17-.437V7.264c0-.178.057-.324.17-.437a.644.644 0 01.436-.17h3.1a.59.59 0 01.437.17c.113.113.17.26.17.437v5.418c.969-1.1 2.245-1.652 3.827-1.652.937 0 1.769.21 2.496.632.743.421 1.324 1.045 1.744 1.87.42.827.63 1.823.63 2.99V23.3a.648.648 0 01-.17.437.59.59 0 01-.436.17h-3.125a.644.644 0 01-.436-.17.648.648 0 01-.17-.437v-6.633c0-.761-.185-1.344-.557-1.75-.355-.42-.88-.63-1.575-.63-.694 0-1.243.21-1.647.63-.388.406-.581.989-.581 1.75V23.3a.593.593 0 01-.17.437.59.59 0 01-.436.17h-3.101zm18.93.243c-.856 0-1.64-.162-2.35-.485-.694-.34-1.243-.794-1.647-1.361a3.396 3.396 0 01-.581-1.92c0-1.117.452-2.016 1.356-2.696.92-.68 2.18-1.15 3.78-1.41l3.028-.461v-.34c0-.616-.13-1.07-.388-1.361-.258-.292-.694-.437-1.308-.437-.371 0-.678.064-.92.194a4.07 4.07 0 00-.752.535 3.835 3.835 0 01-.508.388c-.049.13-.138.195-.267.195h-2.64a.61.61 0 01-.413-.146.492.492 0 01-.12-.389c.016-.437.225-.923.63-1.458.42-.534 1.05-.996 1.889-1.384.856-.39 1.906-.584 3.15-.584 1.986 0 3.456.446 4.409 1.337.952.874 1.429 2.057 1.429 3.547V23.3a.648.648 0 01-.17.437.59.59 0 01-.436.17H77.7a.644.644 0 01-.436-.17.648.648 0 01-.17-.437v-.85c-.355.502-.856.915-1.502 1.239-.63.308-1.38.461-2.253.461zm1.139-2.77c.743 0 1.34-.242 1.793-.728.468-.486.702-1.199.702-2.138v-.34l-2.059.364c-1.454.26-2.18.77-2.18 1.53 0 .406.17.73.508.973.34.226.751.34 1.236.34zm9.977 2.527a.59.59 0 01-.436-.17.593.593 0 01-.17-.437V11.88c0-.178.057-.323.17-.437a.59.59 0 01.436-.17h2.787a.59.59 0 01.436.17c.129.114.193.26.193.438v.923a4.772 4.772 0 011.672-1.288c.695-.324 1.478-.486 2.35-.486 1.421 0 2.576.486 3.464 1.458.889.956 1.333 2.3 1.333 4.033v6.78a.648.648 0 01-.17.436.59.59 0 01-.436.17h-3.052a.644.644 0 01-.437-.17.648.648 0 01-.17-.437v-6.633c0-.761-.185-1.344-.556-1.75-.372-.42-.905-.63-1.6-.63-.678 0-1.21.21-1.598.63-.388.406-.582.989-.582 1.75V23.3a.648.648 0 01-.17.437.59.59 0 01-.435.17h-3.029zm21.14 5.346c-1.534 0-2.778-.251-3.731-.753-.953-.503-1.639-1.078-2.06-1.726-.403-.647-.605-1.19-.605-1.627a.51.51 0 01.194-.39.644.644 0 01.436-.17h3.077c.161 0 .282.033.363.098.097.081.186.21.267.389.161.372.379.664.654.874.274.227.702.34 1.284.34.743 0 1.292-.186 1.647-.558.356-.357.533-.964.533-1.823V22.28c-.824.907-2.003 1.36-3.537 1.36-1.631 0-2.883-.478-3.755-1.433-.856-.972-1.324-2.373-1.405-4.204l-.024-.656c0-1.96.436-3.498 1.308-4.616.872-1.134 2.164-1.7 3.876-1.7.824 0 1.551.161 2.18.485.63.308 1.163.73 1.599 1.264v-.9c0-.178.057-.323.17-.437a.644.644 0 01.436-.17h2.786a.55.55 0 01.436.195.53.53 0 01.194.413v11.686c0 1.847-.549 3.256-1.647 4.228-1.099.972-2.657 1.458-4.676 1.458zm-.17-8.771c.727 0 1.268-.219 1.624-.656.355-.454.557-1.02.605-1.701.016-.113.024-.364.024-.753 0-.373-.008-.616-.024-.73-.032-.68-.234-1.238-.605-1.676-.356-.453-.897-.68-1.624-.68-.759 0-1.308.227-1.647.68-.339.454-.525 1.078-.557 1.871l-.025.535c0 .955.162 1.717.485 2.284.323.55.904.826 1.744.826zm15.161 3.668c-1.938 0-3.464-.526-4.579-1.579-1.114-1.053-1.696-2.583-1.744-4.592v-.85c.064-1.912.654-3.402 1.768-4.47 1.131-1.086 2.641-1.629 4.531-1.629 1.373 0 2.527.284 3.464.85a5.189 5.189 0 012.132 2.285c.485.972.727 2.09.727 3.352v.584a.649.649 0 01-.17.437.589.589 0 01-.436.17h-7.752v.17c.032.761.218 1.377.557 1.847.339.47.832.704 1.478.704.404 0 .735-.08.993-.243.258-.178.493-.389.703-.631.145-.179.258-.284.339-.316.097-.049.242-.073.436-.073h3.004a.49.49 0 01.363.146c.113.08.17.194.17.34 0 .42-.242.907-.727 1.457-.468.551-1.155 1.03-2.059 1.434-.905.405-1.971.607-3.198.607zm2.035-7.847v-.049c0-.794-.186-1.417-.557-1.87-.356-.47-.856-.705-1.502-.705-.63 0-1.131.235-1.502.704-.356.454-.533 1.077-.533 1.871v.049h4.094z" fill="#000"/><path fill-rule="evenodd" clip-rule="evenodd" d="M26.948 6.087a14.95 14.95 0 012.416 4.96c.584 2.13-1.259 3.953-3.468 3.953h-2.081c-2.21 0-3.936-2.06-5.553-3.565a4.867 4.867 0 10-3.314 8.431c1.07 0 2.225.421 2.64 1.408l1.606 3.817c.857 2.036-.107 4.441-2.298 4.73a14.946 14.946 0 01-14.4-23.09 14.948 14.948 0 0124.452-.644z" fill="#C4C4C4"/><path fill-rule="evenodd" clip-rule="evenodd" d="M26.948 6.087a14.95 14.95 0 012.416 4.96c.584 2.13-1.259 3.953-3.468 3.953h-2.081c-2.21 0-3.936-2.06-5.553-3.565a4.867 4.867 0 10-3.314 8.431c1.07 0 2.225.421 2.64 1.408l1.606 3.817c.857 2.036-.107 4.441-2.298 4.73a14.946 14.946 0 01-14.4-23.09 14.948 14.948 0 0124.452-.644z" fill="url(#paint0_linear)"/><defs><linearGradient id="paint0_linear" x1="14.737" y1=".052" x2="14.737" y2="29.948" gradientUnits="userSpaceOnUse"><stop stop-color="#5FD9F9"/><stop offset="1" stop-color="#5771F0"/></linearGradient></defs></svg>