<svg width="105" height="26" fill="none" xmlns="http://www.w3.org/2000/svg"><path d="M11.688 23.927c6.086 0 11.02-4.888 11.02-10.918 0-6.03-4.934-10.917-11.02-10.917C5.6 2.092.666 6.98.666 13.009c0 6.03 4.934 10.918 11.02 10.918z" fill="#F39322"/><path d="M16.651 11.633c.204-1.431-.889-2.184-2.407-2.734l.481-1.908-1.167-.276-.481 1.835-.963-.201.481-1.909-1.167-.275-.5 1.927c-.278-.074-.481-.129-.76-.202L8.52 7.54l-.352 1.23.89.201c.481.129.555.404.555.68l-.555 2.183s.074 0 .13.073h-.13l-.76 3.064c-.074.129-.204.349-.556.276l-.87-.202-.611 1.358 1.519.403c.277.074.555.129.833.202l-.482 1.982 1.167.275.482-1.908c.352.073.611.128.963.275l-.408 1.835 1.167.275.482-1.982c1.982.422 3.575.22 4.186-1.54.556-1.432 0-2.313-1.111-2.863.833-.147 1.463-.624 1.592-1.725zm-2.76 3.835c-.351 1.431-2.833.679-3.648.477l.611-2.587c.834.128 3.464.532 3.038 2.11zm.427-3.835c-.352 1.358-2.408.679-3.093.477l.61-2.385c.612.202 2.816.55 2.483 1.908z" fill="#fff"/><path d="M24.986 5.761h5.853c.982 0 1.723.239 2.241.716a2.31 2.31 0 01.778 1.78c0 .587-.185 1.1-.555 1.523-.241.275-.612.513-1.093.66.722.165 1.26.477 1.611.9.334.421.519.953.519 1.595 0 .514-.13.991-.37 1.395-.241.422-.575.734-1 .99-.26.148-.668.258-1.186.331-.704.092-1.167.129-1.408.129h-5.39V5.76zm3.149 3.927h1.352c.482 0 .834-.092 1.019-.257.185-.165.278-.404.278-.716 0-.293-.093-.513-.278-.679-.185-.165-.519-.238-1-.238h-1.371v1.89zm0 3.945h1.593c.537 0 .926-.092 1.13-.275.203-.184.333-.44.333-.771a.884.884 0 00-.333-.716c-.223-.183-.593-.275-1.149-.275h-1.593v2.037h.019zm7.946-7.872h3.13V15.78h-3.13V5.76zm4.667 0h9.502v2.477h-3.185v7.542h-3.13V8.238h-3.187V5.761z" fill="#000"/><path d="M50.954 5.761h9.502v2.477H57.27v7.542h-3.13V8.238h-3.186V5.761zM61.9 15.78V5.76h5.205c.963 0 1.704.074 2.223.239a2.38 2.38 0 011.24.917c.316.44.464.991.464 1.615 0 .55-.111 1.027-.352 1.431a2.758 2.758 0 01-.982.973c-.26.165-.63.293-1.093.403.37.129.648.239.815.367.111.074.278.257.5.532.223.276.37.477.445.624l1.519 2.9h-3.538l-1.667-3.065c-.204-.404-.407-.66-.574-.77a1.377 1.377 0 00-.76-.24h-.277v4.093H61.9zm3.13-5.964h1.316c.148 0 .426-.036.833-.128a.81.81 0 00.5-.312.943.943 0 00.204-.587c0-.33-.111-.569-.315-.753-.204-.165-.593-.256-1.167-.256h-1.37v2.036zm7.798-4.055H81.2v2.147h-5.242v1.596h4.853v2.037h-4.853v1.982h5.39v2.257h-8.52V5.76zm10.242 0h2.909l3.815 5.542V5.76h2.945v10.02h-2.945l-3.778-5.505v5.505H83.07V5.76zm11.78 0h4.65c.907 0 1.648.129 2.222.367a3.47 3.47 0 011.389 1.064c.371.46.63.991.797 1.597.166.605.24 1.266.24 1.945 0 1.064-.129 1.908-.37 2.495a4.27 4.27 0 01-1.019 1.486c-.444.404-.907.66-1.407.79-.686.183-1.315.275-1.871.275h-4.649V5.76h.019zm3.13 2.275v5.468h.76c.648 0 1.111-.073 1.389-.22.278-.147.5-.385.649-.752.148-.349.24-.936.24-1.743 0-1.064-.166-1.78-.518-2.184-.352-.385-.926-.587-1.741-.587h-.778v.018z" fill="#F39322"/><path d="M27.172 18.844l.889.275a1.493 1.493 0 01-.278.624c-.13.165-.296.294-.482.367-.185.092-.426.128-.722.128a2.32 2.32 0 01-.87-.146 1.397 1.397 0 01-.593-.55c-.167-.258-.241-.588-.241-.992 0-.532.148-.954.426-1.247.296-.294.704-.44 1.222-.44.408 0 .741.091.982.256.24.165.408.422.537.77l-.889.203c-.037-.092-.055-.165-.092-.22a.967.967 0 00-.204-.184.623.623 0 00-.278-.055.63.63 0 00-.537.275c-.093.129-.148.349-.148.642 0 .367.055.606.166.734.112.129.26.202.463.202a.604.604 0 00.445-.165c.074-.11.148-.257.204-.477zm1.389 1.339v-3.247h1.686c.314 0 .555.018.722.073a.806.806 0 01.407.293.95.95 0 01.148.533c0 .183-.037.33-.11.477a.852.852 0 01-.316.312 1.283 1.283 0 01-.351.128c.13.037.203.074.259.129.037.018.093.091.167.165.074.091.11.146.148.201l.5.936h-1.149l-.537-.99c-.074-.129-.13-.22-.185-.258a.375.375 0 00-.24-.073h-.093v1.321H28.56zm1.019-1.945h.426c.055 0 .13-.018.278-.036a.27.27 0 00.166-.11.308.308 0 00.056-.184.315.315 0 00-.093-.239c-.074-.055-.185-.091-.37-.091h-.445v.66h-.018zm2.019-1.302h1.13l.666 1.1.667-1.1h1.13l-1.278 1.89v1.357h-1.019v-1.357l-1.296-1.89zm3.889 0h1.685c.37 0 .648.091.834.256.185.166.278.422.278.734 0 .33-.093.588-.297.771-.203.184-.5.275-.907.275h-.556v1.211h-1.019v-3.247h-.018zm1.037 1.376h.24c.204 0 .334-.037.408-.11a.332.332 0 00.111-.257.332.332 0 00-.11-.257c-.075-.074-.205-.11-.39-.11h-.296v.734h.037zm2.056-1.376h3.093v.807h-1.037v2.44h-1.019v-2.459h-1.037v-.788zm3.279 1.614c0-.532.148-.954.444-1.247.296-.294.722-.44 1.24-.44.556 0 .964.146 1.26.44.297.293.445.697.445 1.229 0 .385-.056.697-.185.936-.13.238-.315.44-.556.569-.24.128-.556.201-.908.201-.37 0-.685-.055-.926-.183a1.31 1.31 0 01-.592-.55c-.148-.257-.223-.57-.223-.955zm1.018.019c0 .33.056.569.185.715.13.147.297.22.5.22.223 0 .39-.073.5-.22.112-.146.186-.385.186-.752 0-.312-.056-.532-.186-.679a.637.637 0 00-.5-.22.637.637 0 00-.5.22c-.13.147-.185.385-.185.716zm5.131.275l.889.275a1.495 1.495 0 01-.278.624c-.13.165-.296.294-.482.367-.185.092-.426.128-.722.128a2.32 2.32 0 01-.87-.146 1.397 1.397 0 01-.593-.55c-.167-.258-.241-.588-.241-.992 0-.532.148-.954.426-1.247.296-.294.704-.44 1.222-.44.408 0 .741.091.982.256.24.165.407.422.537.77l-.889.203c-.037-.092-.056-.165-.093-.22a.967.967 0 00-.203-.184.623.623 0 00-.278-.055.63.63 0 00-.537.275c-.093.129-.148.349-.148.642 0 .367.055.606.166.734.111.129.26.202.463.202a.604.604 0 00.445-.165c.074-.11.148-.257.204-.477zm3.519-1.908h1.019v1.945c0 .183-.037.366-.093.55a1.113 1.113 0 01-.278.44c-.13.129-.26.22-.407.276-.204.073-.426.11-.704.11-.167 0-.334-.019-.519-.037a1.663 1.663 0 01-.481-.128 1.658 1.658 0 01-.352-.276.976.976 0 01-.222-.367 2.132 2.132 0 01-.093-.55v-1.963h1.019v1.981c0 .184.055.312.148.422a.58.58 0 00.407.147.58.58 0 00.408-.147c.092-.091.148-.238.148-.422v-1.982zm1.704 3.247v-3.247h1.685c.315 0 .556.018.723.073a.806.806 0 01.407.293.95.95 0 01.148.533c0 .183-.037.33-.11.477a.852.852 0 01-.316.312 1.283 1.283 0 01-.352.128.57.57 0 01.26.129c.037.018.092.091.166.165.075.091.112.146.149.201l.5.936h-1.149l-.537-.99c-.074-.129-.13-.22-.185-.258a.375.375 0 00-.24-.073h-.093v1.321h-1.056zm1.019-1.945h.426c.037 0 .13-.018.278-.036a.27.27 0 00.166-.11.308.308 0 00.056-.184.315.315 0 00-.093-.239c-.074-.055-.185-.091-.37-.091h-.445v.66h-.018zm2.556 1.945v-3.247h1.685c.315 0 .556.018.723.073a.806.806 0 01.407.293.95.95 0 01.148.533c0 .183-.037.33-.111.477a.852.852 0 01-.315.312 1.283 1.283 0 01-.352.128.57.57 0 01.26.129c.036.018.092.091.166.165.074.091.111.146.148.201l.5.936h-1.148l-.537-.99c-.074-.129-.13-.22-.185-.258a.375.375 0 00-.241-.073h-.093v1.321h-1.055zm1.018-1.945h.426c.037 0 .13-.018.278-.036a.27.27 0 00.167-.11.308.308 0 00.055-.184.315.315 0 00-.092-.239c-.074-.055-.185-.091-.37-.091h-.445v.66h-.019zm2.538-1.302h2.723v.678h-1.704v.514h1.574v.66H61.38v.643h1.76v.734h-2.778v-3.23zm3.334 0h.944l1.241 1.798v-1.799h.963v3.248h-.963l-1.24-1.798v1.798h-.964v-3.247h.019zm6.001 1.908l.889.275a1.495 1.495 0 01-.278.624c-.13.165-.296.294-.482.367-.185.092-.426.128-.722.128a2.32 2.32 0 01-.87-.146 1.397 1.397 0 01-.593-.55c-.167-.258-.241-.588-.241-.992 0-.532.148-.954.426-1.247.296-.294.704-.44 1.222-.44.408 0 .741.091.982.256.24.165.407.422.537.77l-.889.203c-.037-.092-.055-.165-.093-.22a.967.967 0 00-.203-.184.623.623 0 00-.278-.055.63.63 0 00-.537.275c-.093.129-.148.349-.148.642 0 .367.055.606.166.734.111.129.26.202.463.202.204 0 .334-.055.445-.165a.956.956 0 00.204-.477zm1.055-1.908h1.13l.667 1.1.667-1.1h1.13l-1.278 1.89v1.357h-1.02v-1.357l-1.296-1.89zm5.446 0h2.722v.678h-1.704v.514h1.575v.66h-1.575v.643h1.76v.734h-2.778v-3.23zm3.093 0h1.111l.574 1.009.575-1.01h1.11l-1.018 1.579 1.13 1.688h-1.148l-.649-1.046-.648 1.046H79.2l1.13-1.707-1.037-1.56zm5.834 1.908l.89.275a1.494 1.494 0 01-.279.624c-.13.165-.296.294-.481.367-.185.092-.426.128-.722.128a2.32 2.32 0 01-.87-.146 1.397 1.397 0 01-.594-.55c-.166-.258-.24-.588-.24-.992 0-.532.148-.954.426-1.247.296-.294.703-.44 1.222-.44.407 0 .74.091.982.256.24.165.407.422.537.77l-.89.203c-.036-.092-.055-.165-.092-.22a.964.964 0 00-.204-.184.623.623 0 00-.277-.055.63.63 0 00-.538.275c-.092.129-.148.349-.148.642 0 .367.056.606.167.734.111.129.26.202.463.202.204 0 .333-.055.445-.165.074-.11.148-.257.203-.477zm1.39-1.908h1.018v1.137h1.112v-1.137h1.018v3.247h-1.018v-1.32h-1.112v1.32h-1.018v-3.247zm5.834 2.715h-1.148l-.167.532h-1.037l1.24-3.265h1.112l1.24 3.265h-1.055l-.185-.532zm-.204-.715l-.37-1.174-.352 1.174h.722zm1.778-2h.945l1.24 1.798v-1.799h.964v3.248h-.963l-1.241-1.798v1.798h-.963v-3.247h.018zm5.464 2.074v-.68h1.574v1.395a3.412 3.412 0 01-.796.422c-.222.073-.5.11-.815.11a2.14 2.14 0 01-.963-.202 1.36 1.36 0 01-.574-.587 2.01 2.01 0 01-.204-.9c0-.348.074-.66.222-.935.148-.257.37-.459.648-.606.223-.11.519-.165.908-.165.37 0 .63.037.815.092a.975.975 0 01.444.312c.112.128.204.312.26.514l-.982.165a.458.458 0 00-.204-.275c-.092-.074-.222-.092-.37-.092-.222 0-.408.073-.537.238-.13.166-.204.404-.204.734 0 .349.074.606.204.753.13.146.315.22.555.22.112 0 .223-.018.334-.055.11-.037.222-.092.352-.165v-.312h-.667v.018zm2.186-2.074h2.722v.678h-1.704v.514h1.575v.66h-1.575v.643h1.76v.734h-2.778v-3.23z" fill="#878787"/></svg>