<svg width="15" height="15" fill="none" xmlns="http://www.w3.org/2000/svg"><path d="M7.5.833A6.674 6.674 0 00.833 7.5 6.674 6.674 0 007.5 14.167 6.674 6.674 0 0014.167 7.5 6.674 6.674 0 007.5.833zm1.477 10.159c-.367.143-1.64.751-2.374.105a.931.931 0 01-.328-.732c0-.554.183-1.037.51-2.198.059-.22.13-.504.13-.73 0-.389-.148-.493-.55-.493-.194 0-.411.07-.607.144l.108-.444c.437-.179.987-.395 1.456-.395.705 0 1.224.352 1.224 1.02a3.1 3.1 0 01-.103.764l-.406 1.435c-.084.29-.235.93 0 1.119.23.187.778.088 1.048-.04l-.108.444zm-.67-5.714a.834.834 0 110-1.666.834.834 0 010 1.665v.001z" fill="#58708E"/></svg>