<svg width="13" height="13" fill="none" xmlns="http://www.w3.org/2000/svg"><path fill-rule="evenodd" clip-rule="evenodd" d="M6.976.794L8.52 3.9a.532.532 0 00.4.291l3.457.5a.53.53 0 01.352.204.513.513 0 01-.057.688l-2.505 2.422a.508.508 0 00-.15.468l.6 3.418a.525.525 0 01-.436.595.58.58 0 01-.343-.053l-3.08-1.614a.517.517 0 00-.494 0L3.163 12.44a.541.541 0 01-.718-.22.528.528 0 01-.054-.333l.6-3.419a.525.525 0 00-.15-.466L.32 5.58a.524.524 0 01-.001-.742s0-.002.002-.002a.606.606 0 01.3-.148l3.458-.5a.541.541 0 00.4-.292L6.023.794a.524.524 0 01.712-.237.546.546 0 01.241.237z" fill="#C4C4C4"/><path fill-rule="evenodd" clip-rule="evenodd" d="M6.976.794L8.52 3.9a.532.532 0 00.4.291l3.457.5a.53.53 0 01.352.204.513.513 0 01-.057.688l-2.505 2.422a.508.508 0 00-.15.468l.6 3.418a.525.525 0 01-.436.595.58.58 0 01-.343-.053l-3.08-1.614a.517.517 0 00-.494 0L3.163 12.44a.541.541 0 01-.718-.22.528.528 0 01-.054-.333l.6-3.419a.525.525 0 00-.15-.466L.32 5.58a.524.524 0 01-.001-.742s0-.002.002-.002a.606.606 0 01.3-.148l3.458-.5a.541.541 0 00.4-.292L6.023.794a.524.524 0 01.712-.237.546.546 0 01.241.237z" fill="url(#paint0_linear)"/><defs><linearGradient id="paint0_linear" x1="6.501" y1=".5" x2="6.501" y2="12.5" gradientUnits="userSpaceOnUse"><stop stop-color="#F8BF20"/><stop offset="1" stop-color="#FF753C"/></linearGradient></defs></svg>