<svg width="15" height="15" fill="none" xmlns="http://www.w3.org/2000/svg"><path clip-rule="evenodd" d="M7.976 1.794L9.52 4.9a.532.532 0 00.4.291l3.457.5a.53.53 0 01.352.204.513.513 0 01-.057.688l-2.505 2.422a.508.508 0 00-.15.468l.6 3.418a.525.525 0 01-.436.595.58.58 0 01-.343-.053l-3.08-1.614a.517.517 0 00-.494 0L4.163 13.44a.541.541 0 01-.718-.22.528.528 0 01-.054-.333l.6-3.419a.525.525 0 00-.15-.466L1.32 6.58a.524.524 0 01-.002-.742l.002-.002a.606.606 0 01.302-.148l3.457-.5a.541.541 0 00.4-.292l1.543-3.103a.524.524 0 01.712-.237.546.546 0 01.241.237z" stroke="#58708E" stroke-opacity=".3" stroke-width="1.5" stroke-linecap="round" stroke-linejoin="round"/></svg>