<svg width="105" height="26" viewBox="0 0 105 26" fill="none" xmlns="http://www.w3.org/2000/svg">
<path d="M11.6875 23.9267C17.7739 23.9267 22.7079 19.0388 22.7079 13.0092C22.7079 6.9797 17.7739 2.0918 11.6875 2.0918C5.60102 2.0918 0.666992 6.9797 0.666992 13.0092C0.666992 19.0388 5.60102 23.9267 11.6875 23.9267Z" fill="#F39322"/>
<path d="M16.6515 11.6329C16.8552 10.2017 15.7624 9.44944 14.2436 8.89898L14.7252 6.99073L13.5583 6.7155L13.0768 8.55036C12.7248 8.47697 12.4655 8.42192 12.1136 8.34853L12.5952 6.44027L11.4283 6.16504L10.9282 8.09164C10.6504 8.01825 10.4467 7.9632 10.1688 7.88981L8.5204 7.54119L8.16849 8.77054L9.05753 8.97238C9.5391 9.10082 9.61319 9.37605 9.61319 9.65128L9.05753 11.8348C9.05753 11.8348 9.13162 11.8348 9.18718 11.9082C9.1131 11.9082 9.1131 11.9082 9.05753 11.9082L8.29814 14.9724C8.22405 15.1008 8.0944 15.321 7.74249 15.2476L6.87196 15.0458L6.26074 16.4036L7.77953 16.8072C8.05736 16.8806 8.33518 16.9357 8.61301 17.0091L8.13144 18.9907L9.29832 19.266L9.77988 17.3577C10.1318 17.4311 10.3911 17.4861 10.743 17.6329L10.3355 19.4678L11.5024 19.743L11.984 17.7614C13.9658 18.1834 15.5587 17.9816 16.1699 16.2201C16.7256 14.7889 16.1699 13.9082 15.0586 13.3577C15.8921 13.2109 16.5218 12.7338 16.6515 11.6329ZM13.8917 15.4678C13.5398 16.899 11.0579 16.1467 10.2429 15.9449L10.8541 13.3577C11.6876 13.4861 14.3177 13.8898 13.8917 15.4678ZM14.3177 11.6329C13.9658 12.9907 11.9099 12.3118 11.2246 12.11L11.8358 9.72467C12.447 9.92651 14.6511 10.2751 14.3177 11.6329Z" fill="white"/>
<path d="M24.9863 5.76123H30.8392C31.8209 5.76123 32.5617 5.99976 33.0803 6.47683C33.599 6.95389 33.8583 7.54105 33.8583 8.25664C33.8583 8.8438 33.673 9.35756 33.3026 9.77958C33.0618 10.0548 32.6914 10.2933 32.2098 10.4401C32.9322 10.6053 33.4693 10.9172 33.8212 11.3392C34.1546 11.7612 34.3398 12.2933 34.3398 12.9355C34.3398 13.4493 34.2102 13.9264 33.9694 14.33C33.7286 14.7521 33.3952 15.064 32.9692 15.3209C32.7099 15.4677 32.3024 15.5777 31.7838 15.6511C31.08 15.7429 30.617 15.7796 30.3762 15.7796H24.9863V5.76123ZM28.135 9.68784H29.4871C29.9687 9.68784 30.3206 9.59609 30.5058 9.43096C30.691 9.26582 30.7836 9.02729 30.7836 8.71536C30.7836 8.42178 30.691 8.2016 30.5058 8.03646C30.3206 7.87132 29.9872 7.79793 29.5056 7.79793H28.135V9.68784ZM28.135 13.6328H29.7279C30.265 13.6328 30.654 13.541 30.8577 13.3576C31.0615 13.1741 31.1911 12.9172 31.1911 12.5869C31.1911 12.2933 31.08 12.0548 30.8577 11.8713C30.6355 11.6878 30.265 11.5961 29.7094 11.5961H28.1165V13.6328H28.135Z" fill="black"/>
<path d="M36.0811 5.76123H39.2112V15.7796H36.0811V5.76123Z" fill="black"/>
<path d="M40.7485 5.76123H50.2502V8.2383H47.0645V15.7796H43.9343V8.2383H40.7485V5.76123Z" fill="black"/>
<path d="M50.9541 5.76123H60.4558V8.2383H57.27V15.7796H54.1398V8.2383H50.9541V5.76123Z" fill="#F39322"/>
<path d="M61.9004 15.7796V5.76123H67.105C68.0682 5.76123 68.809 5.83463 69.3276 5.99976C69.8462 6.1649 70.2537 6.47683 70.5686 6.91719C70.8835 7.35756 71.0316 7.90802 71.0316 8.53187C71.0316 9.08233 70.9205 9.5594 70.6797 9.96307C70.4389 10.3667 70.1056 10.697 69.6981 10.9355C69.4388 11.1007 69.0683 11.2291 68.6053 11.3392C68.9757 11.4677 69.2535 11.5777 69.4202 11.7062C69.5314 11.7796 69.6981 11.9631 69.9203 12.2383C70.1426 12.5135 70.2908 12.7154 70.3649 12.8621L71.8836 15.7612H68.346L66.679 12.697C66.4753 12.2933 66.2715 12.0365 66.1048 11.9264C65.8826 11.7796 65.6233 11.6878 65.3454 11.6878H65.0676V15.7796H61.9004ZM65.0306 9.81628H66.3456C66.4938 9.81628 66.7716 9.77958 67.1791 9.68784C67.3828 9.65114 67.5495 9.54105 67.6792 9.37591C67.8088 9.21077 67.8829 9.00894 67.8829 8.78875C67.8829 8.45848 67.7718 8.21995 67.5681 8.03646C67.3643 7.87132 66.9754 7.77958 66.4012 7.77958H65.0306V9.81628Z" fill="#F39322"/>
<path d="M72.8281 5.76123H81.2V7.90802H75.9583V9.50435H80.811V11.541H75.9583V13.5227H81.3481V15.7796H72.8281V5.76123Z" fill="#F39322"/>
<path d="M83.0708 5.76123H85.9787L89.7942 11.3025V5.76123H92.7392V15.7796H89.7942L86.0158 10.275V15.7796H83.0708V5.76123Z" fill="#F39322"/>
<path d="M94.8505 5.76123H99.4995C100.407 5.76123 101.148 5.88967 101.722 6.1282C102.278 6.36674 102.759 6.73371 103.111 7.19242C103.482 7.65114 103.741 8.18325 103.908 8.78875C104.074 9.39426 104.148 10.0548 104.148 10.7337C104.148 11.7979 104.019 12.642 103.778 13.2291C103.537 13.8163 103.185 14.3117 102.759 14.7154C102.315 15.119 101.852 15.3759 101.352 15.5043C100.666 15.6878 100.037 15.7796 99.481 15.7796H94.832V5.76123H94.8505ZM97.9807 8.03646V13.5043H98.7401C99.3884 13.5043 99.8514 13.431 100.129 13.2842C100.407 13.1374 100.629 12.8988 100.778 12.5319C100.926 12.1832 101.018 11.5961 101.018 10.7888C101.018 9.72453 100.852 9.00894 100.5 8.60527C100.148 8.21995 99.5736 8.01811 98.7586 8.01811H97.9807V8.03646Z" fill="#F39322"/>
<path d="M27.1717 18.844L28.0607 19.1192C28.0052 19.3761 27.9126 19.5779 27.7829 19.743C27.6533 19.9082 27.4866 20.0366 27.3014 20.11C27.1161 20.2018 26.8754 20.2385 26.579 20.2385C26.2271 20.2385 25.9307 20.1834 25.7085 20.0917C25.4862 19.9816 25.2825 19.8164 25.1158 19.5412C24.9491 19.2843 24.875 18.954 24.875 18.5504C24.875 18.0183 25.0232 17.5963 25.301 17.3027C25.5974 17.0091 26.0048 16.8623 26.5234 16.8623C26.9309 16.8623 27.2643 16.954 27.5051 17.1192C27.7459 17.2843 27.9126 17.5412 28.0422 17.8898L27.1532 18.0917C27.1161 17.9999 27.0976 17.9265 27.0606 17.8715C27.005 17.7981 26.9309 17.743 26.8568 17.688C26.7827 17.6513 26.6901 17.6329 26.579 17.6329C26.3567 17.6329 26.1715 17.7247 26.0419 17.9082C25.9493 18.0366 25.8937 18.2568 25.8937 18.5504C25.8937 18.9174 25.9493 19.1559 26.0604 19.2843C26.1715 19.4128 26.3197 19.4862 26.5234 19.4862C26.7087 19.4862 26.8568 19.4311 26.968 19.321C27.042 19.2109 27.1161 19.0641 27.1717 18.844Z" fill="#878787"/>
<path d="M28.561 20.1833V16.9355H30.2465C30.5614 16.9355 30.8022 16.9539 30.9689 17.0089C31.1356 17.064 31.2652 17.1557 31.3763 17.3025C31.4689 17.4493 31.5245 17.6144 31.5245 17.8346C31.5245 18.0181 31.4875 18.1649 31.4134 18.3117C31.3393 18.4401 31.2282 18.5502 31.0985 18.6236C31.0059 18.6787 30.8948 18.7154 30.7466 18.7521C30.8763 18.7888 30.9503 18.8255 31.0059 18.8805C31.0429 18.8988 31.0985 18.9722 31.1726 19.0456C31.2467 19.1374 31.2837 19.1924 31.3208 19.2475L31.8209 20.1833H30.6725L30.1354 19.1924C30.0613 19.064 30.0057 18.9722 29.9502 18.9355C29.8761 18.8805 29.802 18.8622 29.7094 18.8622H29.6168V20.1833H28.561ZM29.5797 18.2383H30.0057C30.0613 18.2383 30.1354 18.2199 30.2836 18.2016C30.3576 18.1833 30.4132 18.1466 30.4503 18.0915C30.4873 18.0365 30.5058 17.9814 30.5058 17.908C30.5058 17.7979 30.4688 17.7245 30.4132 17.6695C30.3391 17.6144 30.228 17.5777 30.0428 17.5777H29.5983V18.2383H29.5797Z" fill="#878787"/>
<path d="M31.5986 16.9355H32.7285L33.3952 18.0365L34.062 16.9355H35.1919L33.9139 18.8255V20.1833H32.8952V18.8255L31.5986 16.9355Z" fill="#878787"/>
<path d="M35.4878 16.9355H37.1733C37.5437 16.9355 37.8215 17.0273 38.0068 17.1924C38.192 17.3576 38.2846 17.6144 38.2846 17.9264C38.2846 18.2566 38.192 18.5135 37.9882 18.697C37.7845 18.8805 37.4881 18.9722 37.0807 18.9722H36.525V20.1833H35.5063V16.9355H35.4878ZM36.525 18.3117H36.7658C36.9695 18.3117 37.0992 18.275 37.1733 18.2016C37.2474 18.1282 37.2844 18.0548 37.2844 17.9447C37.2844 17.8346 37.2474 17.7612 37.1733 17.6878C37.0992 17.6144 36.9695 17.5777 36.7843 17.5777H36.488V18.3117H36.525Z" fill="#878787"/>
<path d="M38.5811 16.9355H41.6742V17.7429H40.637V20.1833H39.6183V17.7245H38.5811V16.9355Z" fill="#878787"/>
<path d="M41.8594 18.5504C41.8594 18.0183 42.0075 17.5963 42.3039 17.3027C42.6002 17.0091 43.0262 16.8623 43.5449 16.8623C44.1005 16.8623 44.508 17.0091 44.8043 17.3027C45.1007 17.5963 45.2489 17.9999 45.2489 18.532C45.2489 18.9174 45.1933 19.2293 45.0636 19.4678C44.934 19.7063 44.7488 19.9082 44.508 20.0366C44.2672 20.1651 43.9523 20.2385 43.6004 20.2385C43.23 20.2385 42.9151 20.1834 42.6743 20.055C42.4335 19.9449 42.2298 19.7614 42.0816 19.5045C41.9335 19.2476 41.8594 18.9357 41.8594 18.5504ZM42.8781 18.5687C42.8781 18.899 42.9336 19.1375 43.0633 19.2843C43.1929 19.4311 43.3596 19.5045 43.5634 19.5045C43.7856 19.5045 43.9523 19.4311 44.0635 19.2843C44.1746 19.1375 44.2487 18.899 44.2487 18.532C44.2487 18.2201 44.1931 17.9999 44.0635 17.8531C43.9338 17.7063 43.7671 17.6329 43.5634 17.6329C43.3596 17.6329 43.1929 17.7063 43.0633 17.8531C42.9336 17.9999 42.8781 18.2385 42.8781 18.5687Z" fill="#878787"/>
<path d="M48.0086 18.844L48.8977 19.1192C48.8421 19.3761 48.7495 19.5779 48.6198 19.743C48.4902 19.9082 48.3235 20.0366 48.1383 20.11C47.9531 20.2018 47.7123 20.2385 47.4159 20.2385C47.064 20.2385 46.7677 20.1834 46.5454 20.0917C46.3231 19.9816 46.1194 19.8164 45.9527 19.5412C45.786 19.2843 45.7119 18.954 45.7119 18.5504C45.7119 18.0183 45.8601 17.5963 46.1379 17.3027C46.4343 17.0091 46.8417 16.8623 47.3604 16.8623C47.7678 16.8623 48.1012 16.954 48.342 17.1192C48.5828 17.2843 48.7495 17.5412 48.8791 17.8898L47.9901 18.0917C47.9531 17.9999 47.9345 17.9265 47.8975 17.8715C47.8419 17.7981 47.7678 17.743 47.6937 17.688C47.6197 17.6513 47.5271 17.6329 47.4159 17.6329C47.1937 17.6329 47.0084 17.7247 46.8788 17.9082C46.7862 18.0366 46.7306 18.2568 46.7306 18.5504C46.7306 18.9174 46.7862 19.1559 46.8973 19.2843C47.0084 19.4128 47.1566 19.4862 47.3604 19.4862C47.5456 19.4862 47.6937 19.4311 47.8049 19.321C47.879 19.2109 47.9531 19.0641 48.0086 18.844Z" fill="#878787"/>
<path d="M51.528 16.9355H52.5467V18.8805C52.5467 19.064 52.5096 19.2475 52.454 19.431C52.3985 19.5961 52.3059 19.7429 52.1762 19.8713C52.0466 19.9998 51.9169 20.0915 51.7687 20.1466C51.565 20.22 51.3427 20.2566 51.0649 20.2566C50.8982 20.2566 50.7315 20.2383 50.5463 20.2199C50.3611 20.2016 50.1944 20.1466 50.0647 20.0915C49.9351 20.0181 49.8239 19.9264 49.7128 19.8163C49.6017 19.6878 49.5276 19.5777 49.4906 19.4493C49.435 19.2475 49.3979 19.064 49.3979 18.8988V16.9355H50.4166V18.9172C50.4166 19.1007 50.4722 19.2291 50.5648 19.3392C50.6574 19.431 50.8056 19.486 50.9723 19.486C51.139 19.486 51.2872 19.431 51.3798 19.3392C51.4724 19.2475 51.528 19.1007 51.528 18.9172V16.9355Z" fill="#878787"/>
<path d="M53.2319 20.1833V16.9355H54.9174C55.2323 16.9355 55.4731 16.9539 55.6398 17.0089C55.8065 17.064 55.9361 17.1557 56.0472 17.3025C56.1399 17.4493 56.1954 17.6144 56.1954 17.8346C56.1954 18.0181 56.1584 18.1649 56.0843 18.3117C56.0102 18.4401 55.8991 18.5502 55.7694 18.6236C55.6768 18.6787 55.5657 18.7154 55.4175 18.7521C55.5472 18.7888 55.6212 18.8255 55.6768 18.8805C55.7139 18.8988 55.7694 18.9722 55.8435 19.0456C55.9176 19.1374 55.9546 19.1924 55.9917 19.2475L56.4918 20.1833H55.3434L54.8063 19.1924C54.7322 19.064 54.6766 18.9722 54.6211 18.9355C54.547 18.8805 54.4729 18.8622 54.3803 18.8622H54.2877V20.1833H53.2319ZM54.2506 18.2383H54.6766C54.7137 18.2383 54.8063 18.2199 54.9545 18.2016C55.0285 18.1833 55.0841 18.1466 55.1212 18.0915C55.1582 18.0365 55.1767 17.9814 55.1767 17.908C55.1767 17.7979 55.1397 17.7245 55.0841 17.6695C55.01 17.6144 54.8989 17.5777 54.7137 17.5777H54.2692V18.2383H54.2506Z" fill="#878787"/>
<path d="M56.8066 20.1833V16.9355H58.4921C58.807 16.9355 59.0478 16.9539 59.2145 17.0089C59.3812 17.064 59.5108 17.1557 59.6219 17.3025C59.7145 17.4493 59.7701 17.6144 59.7701 17.8346C59.7701 18.0181 59.7331 18.1649 59.659 18.3117C59.5849 18.4401 59.4738 18.5502 59.3441 18.6236C59.2515 18.6787 59.1404 18.7154 58.9922 18.7521C59.1219 18.7888 59.1959 18.8255 59.2515 18.8805C59.2885 18.8988 59.3441 18.9722 59.4182 19.0456C59.4923 19.1374 59.5293 19.1924 59.5664 19.2475L60.0665 20.1833H58.9181L58.381 19.1924C58.3069 19.064 58.2513 18.9722 58.1958 18.9355C58.1217 18.8805 58.0476 18.8622 57.955 18.8622H57.8624V20.1833H56.8066ZM57.8253 18.2383H58.2513C58.2884 18.2383 58.381 18.2199 58.5292 18.2016C58.6032 18.1833 58.6588 18.1466 58.6959 18.0915C58.7329 18.0365 58.7514 17.9814 58.7514 17.908C58.7514 17.7979 58.7144 17.7245 58.6588 17.6695C58.5847 17.6144 58.4736 17.5777 58.2884 17.5777H57.8439V18.2383H57.8253Z" fill="#878787"/>
<path d="M60.3628 16.9355H63.0855V17.6144H61.3815V18.1282H62.9558V18.7888H61.3815V19.431H63.1411V20.1649H60.3628V16.9355Z" fill="#878787"/>
<path d="M63.6967 16.9355H64.6414L65.8823 18.7337V16.9355H66.8454V20.1833H65.8823L64.6414 18.3851V20.1833H63.6782V16.9355H63.6967Z" fill="#878787"/>
<path d="M69.6976 18.844L70.5867 19.1192C70.5311 19.3761 70.4385 19.5779 70.3088 19.743C70.1792 19.9082 70.0125 20.0366 69.8273 20.11C69.642 20.2018 69.4013 20.2385 69.1049 20.2385C68.753 20.2385 68.4566 20.1834 68.2344 20.0917C68.0121 19.9816 67.8084 19.8164 67.6417 19.5412C67.475 19.2843 67.4009 18.954 67.4009 18.5504C67.4009 18.0183 67.5491 17.5963 67.8269 17.3027C68.1232 17.0091 68.5307 16.8623 69.0493 16.8623C69.4568 16.8623 69.7902 16.954 70.031 17.1192C70.2718 17.2843 70.4385 17.5412 70.5681 17.8898L69.6791 18.0917C69.642 17.9999 69.6235 17.9265 69.5865 17.8715C69.5309 17.7981 69.4568 17.743 69.3827 17.688C69.3086 17.6513 69.216 17.6329 69.1049 17.6329C68.8826 17.6329 68.6974 17.7247 68.5678 17.9082C68.4752 18.0366 68.4196 18.2568 68.4196 18.5504C68.4196 18.9174 68.4752 19.1559 68.5863 19.2843C68.6974 19.4128 68.8456 19.4862 69.0493 19.4862C69.2531 19.4862 69.3827 19.4311 69.4939 19.321C69.5865 19.2109 69.6606 19.0641 69.6976 18.844Z" fill="#878787"/>
<path d="M70.7534 16.9355H71.8832L72.55 18.0365L73.2168 16.9355H74.3466L73.0686 18.8255V20.1833H72.0499V18.8255L70.7534 16.9355Z" fill="#878787"/>
<path d="M76.1987 16.9355H78.9214V17.6144H77.2174V18.1282H78.7918V18.7888H77.2174V19.431H78.977V20.1649H76.1987V16.9355Z" fill="#878787"/>
<path d="M79.2918 16.9355H80.4031L80.9773 17.9447L81.5515 16.9355H82.6628L81.6441 18.5135L82.7739 20.2016H81.6256L80.9773 19.1557L80.3291 20.2016H79.1992L80.3291 18.4952L79.2918 16.9355Z" fill="#878787"/>
<path d="M85.1263 18.844L86.0153 19.1192C85.9598 19.3761 85.8671 19.5779 85.7375 19.743C85.6078 19.9082 85.4411 20.0366 85.2559 20.11C85.0707 20.2018 84.8299 20.2385 84.5336 20.2385C84.1817 20.2385 83.8853 20.1834 83.6631 20.0917C83.4408 19.9816 83.2371 19.8164 83.0704 19.5412C82.9037 19.2843 82.8296 18.954 82.8296 18.5504C82.8296 18.0183 82.9778 17.5963 83.2556 17.3027C83.5519 17.0091 83.9594 16.8623 84.478 16.8623C84.8855 16.8623 85.2189 16.954 85.4597 17.1192C85.7005 17.2843 85.8671 17.5412 85.9968 17.8898L85.1078 18.0917C85.0707 17.9999 85.0522 17.9265 85.0151 17.8715C84.9596 17.7981 84.8855 17.743 84.8114 17.688C84.7373 17.6513 84.6447 17.6329 84.5336 17.6329C84.3113 17.6329 84.1261 17.7247 83.9965 17.9082C83.9038 18.0366 83.8483 18.2568 83.8483 18.5504C83.8483 18.9174 83.9038 19.1559 84.015 19.2843C84.1261 19.4128 84.2743 19.4862 84.478 19.4862C84.6818 19.4862 84.8114 19.4311 84.9225 19.321C84.9966 19.2109 85.0707 19.0641 85.1263 18.844Z" fill="#878787"/>
<path d="M86.5156 16.9355H87.5343V18.0732H88.6456V16.9355H89.6643V20.1833H88.6456V18.8622H87.5343V20.1833H86.5156V16.9355Z" fill="#878787"/>
<path d="M92.3498 19.6514H91.2015L91.0348 20.1835H89.9976L91.2385 16.9175H92.3498L93.5908 20.1835H92.535L92.3498 19.6514ZM92.1461 18.9358L91.7757 17.7615L91.4237 18.9358H92.1461Z" fill="#878787"/>
<path d="M93.9243 16.9355H94.8689L96.1099 18.7337V16.9355H97.073V20.1833H96.1099L94.8689 18.3851V20.1833H93.9058V16.9355H93.9243Z" fill="#878787"/>
<path d="M99.3879 19.0091V18.3302H100.962V19.7247C100.666 19.9265 100.388 20.0733 100.166 20.1467C99.9436 20.2201 99.6658 20.2568 99.3509 20.2568C98.962 20.2568 98.6471 20.1834 98.3878 20.055C98.147 19.9265 97.9433 19.7247 97.8136 19.4678C97.6839 19.2109 97.6099 18.899 97.6099 18.5687C97.6099 18.2201 97.684 17.9082 97.8321 17.6329C97.9803 17.3761 98.2026 17.1742 98.4804 17.0274C98.7026 16.9174 98.999 16.8623 99.3879 16.8623C99.7584 16.8623 100.018 16.899 100.203 16.954C100.388 17.0274 100.536 17.1192 100.647 17.266C100.759 17.3944 100.851 17.5779 100.907 17.7797L99.9251 17.9449C99.888 17.8164 99.814 17.7247 99.7213 17.6696C99.6287 17.5963 99.4991 17.5779 99.3509 17.5779C99.1287 17.5779 98.9434 17.6513 98.8138 17.8164C98.6841 17.9816 98.61 18.2201 98.61 18.5504C98.61 18.899 98.6841 19.1559 98.8138 19.3027C98.9434 19.4495 99.1286 19.5229 99.3694 19.5229C99.4806 19.5229 99.5917 19.5045 99.7028 19.4678C99.8139 19.4311 99.9251 19.3761 100.055 19.3027V18.9907H99.3879V19.0091Z" fill="#878787"/>
<path d="M101.574 16.9355H104.296V17.6144H102.592V18.1282H104.167V18.7888H102.592V19.431H104.352V20.1649H101.574V16.9355Z" fill="#878787"/>
</svg>
