<svg width="15" height="15" viewBox="0 0 15 15" fill="none" xmlns="http://www.w3.org/2000/svg">
<path d="M7.49992 0.833496C3.82392 0.833496 0.833252 3.82416 0.833252 7.50016C0.833252 11.1762 3.82392 14.1668 7.49992 14.1668C11.1759 14.1668 14.1666 11.1762 14.1666 7.50016C14.1666 3.82416 11.1759 0.833496 7.49992 0.833496ZM8.97659 10.9915C8.60992 11.1355 7.33659 11.7435 6.60325 11.0975C6.49741 11.0076 6.41302 10.8951 6.35626 10.7683C6.29951 10.6415 6.27183 10.5037 6.27525 10.3648C6.27525 9.81083 6.45792 9.3275 6.78592 8.16683C6.84392 7.94683 6.91459 7.66283 6.91459 7.4375C6.91459 7.04816 6.76659 6.94416 6.36592 6.94416C6.17059 6.94416 5.95392 7.01416 5.75792 7.0875L5.86592 6.6435C6.30325 6.4655 6.85259 6.24883 7.32192 6.24883C8.02725 6.24883 8.54592 6.60083 8.54592 7.2695C8.54592 7.46283 8.51259 7.80016 8.44258 8.0335L8.03725 9.46816C7.95325 9.75816 7.80192 10.3975 8.03659 10.5868C8.26792 10.7735 8.81525 10.6748 9.08459 10.5468L8.97659 10.9915ZM8.30659 5.27816C8.08548 5.27816 7.87344 5.19033 7.71709 5.03399C7.56075 4.87765 7.47292 4.6656 7.47292 4.4445C7.47292 4.22339 7.56075 4.01135 7.71709 3.855C7.87344 3.69866 8.08548 3.61083 8.30659 3.61083C8.5276 3.61083 8.73956 3.69863 8.89584 3.85491C9.05212 4.01119 9.13992 4.22315 9.13992 4.44416C9.13992 4.66518 9.05212 4.87714 8.89584 5.03342C8.73956 5.1897 8.5276 5.2775 8.30659 5.2775V5.27816Z" fill="#58708E" fill-opacity="0.3"/>
</svg>
