<svg width="15" height="15" viewBox="0 0 15 15" fill="none" xmlns="http://www.w3.org/2000/svg">
<path fill-rule="evenodd" clip-rule="evenodd" d="M7.97617 1.79389L9.52017 4.89989C9.5975 5.05655 9.74683 5.16589 9.92017 5.19122L13.3768 5.69055C13.5168 5.70922 13.6428 5.78255 13.7288 5.89455C13.8902 6.10455 13.8655 6.40189 13.6722 6.58255L11.1668 9.00522C11.0395 9.12522 10.9828 9.30122 11.0162 9.47255L11.6162 12.8912C11.6582 13.1746 11.4648 13.4399 11.1815 13.4859C11.0642 13.5039 10.9442 13.4852 10.8375 13.4326L7.75883 11.8186C7.60417 11.7346 7.41883 11.7346 7.26417 11.8186L4.16283 13.4412C3.9035 13.5732 3.58617 13.4752 3.44483 13.2212C3.39083 13.1186 3.37217 13.0019 3.39083 12.8879L3.99083 9.46922C4.02083 9.29855 3.96417 9.12322 3.84017 9.00255L1.3215 6.58055C1.11617 6.37655 1.11483 6.04455 1.3195 5.83922C1.32017 5.83855 1.32083 5.83722 1.3215 5.83655C1.40617 5.75989 1.51017 5.70855 1.62283 5.68855L5.08017 5.18922C5.25283 5.16189 5.4015 5.05389 5.48017 4.89722L7.02283 1.79389C7.08483 1.66789 7.19483 1.57122 7.32817 1.52722C7.46217 1.48255 7.60883 1.49322 7.73483 1.55655C7.83817 1.60789 7.92283 1.69122 7.97617 1.79389Z" stroke="#58708E" stroke-opacity="0.3" stroke-width="1.5" stroke-linecap="round" stroke-linejoin="round"/>
</svg>
