<svg width="13" height="13" viewBox="0 0 13 13" fill="none" xmlns="http://www.w3.org/2000/svg">
<path fill-rule="evenodd" clip-rule="evenodd" d="M6.97617 0.793887L8.52017 3.89989C8.5975 4.05655 8.74683 4.16589 8.92017 4.19122L12.3768 4.69055C12.5168 4.70922 12.6428 4.78255 12.7288 4.89455C12.8902 5.10455 12.8655 5.40189 12.6722 5.58255L10.1668 8.00522C10.0395 8.12522 9.98283 8.30122 10.0162 8.47255L10.6162 11.8912C10.6582 12.1746 10.4648 12.4399 10.1815 12.4859C10.0642 12.5039 9.94417 12.4852 9.8375 12.4326L6.75883 10.8186C6.60417 10.7346 6.41883 10.7346 6.26417 10.8186L3.16283 12.4412C2.9035 12.5732 2.58617 12.4752 2.44483 12.2212C2.39083 12.1186 2.37217 12.0019 2.39083 11.8879L2.99083 8.46922C3.02083 8.29855 2.96417 8.12322 2.84017 8.00255L0.321501 5.58055C0.116167 5.37655 0.114834 5.04455 0.319501 4.83922C0.320167 4.83855 0.320834 4.83722 0.321501 4.83655C0.406167 4.75989 0.510167 4.70855 0.622834 4.68855L4.08017 4.18922C4.25283 4.16189 4.4015 4.05389 4.48017 3.89722L6.02283 0.793887C6.08483 0.667887 6.19483 0.57122 6.32817 0.52722C6.46217 0.482553 6.60883 0.49322 6.73483 0.556553C6.83817 0.607887 6.92283 0.69122 6.97617 0.793887Z" fill="#C4C4C4"/>
<path fill-rule="evenodd" clip-rule="evenodd" d="M6.97617 0.793887L8.52017 3.89989C8.5975 4.05655 8.74683 4.16589 8.92017 4.19122L12.3768 4.69055C12.5168 4.70922 12.6428 4.78255 12.7288 4.89455C12.8902 5.10455 12.8655 5.40189 12.6722 5.58255L10.1668 8.00522C10.0395 8.12522 9.98283 8.30122 10.0162 8.47255L10.6162 11.8912C10.6582 12.1746 10.4648 12.4399 10.1815 12.4859C10.0642 12.5039 9.94417 12.4852 9.8375 12.4326L6.75883 10.8186C6.60417 10.7346 6.41883 10.7346 6.26417 10.8186L3.16283 12.4412C2.9035 12.5732 2.58617 12.4752 2.44483 12.2212C2.39083 12.1186 2.37217 12.0019 2.39083 11.8879L2.99083 8.46922C3.02083 8.29855 2.96417 8.12322 2.84017 8.00255L0.321501 5.58055C0.116167 5.37655 0.114834 5.04455 0.319501 4.83922C0.320167 4.83855 0.320834 4.83722 0.321501 4.83655C0.406167 4.75989 0.510167 4.70855 0.622834 4.68855L4.08017 4.18922C4.25283 4.16189 4.4015 4.05389 4.48017 3.89722L6.02283 0.793887C6.08483 0.667887 6.19483 0.57122 6.32817 0.52722C6.46217 0.482553 6.60883 0.49322 6.73483 0.556553C6.83817 0.607887 6.92283 0.69122 6.97617 0.793887Z" fill="url(#paint0_linear)"/>
<defs>
<linearGradient id="paint0_linear" x1="6.501" y1="0.5" x2="6.501" y2="12.4999" gradientUnits="userSpaceOnUse">
<stop stop-color="#F8BF20"/>
<stop offset="1" stop-color="#FF753C"/>
</linearGradient>
</defs>
</svg>
