<svg width="15" height="15" viewBox="0 0 15 15" fill="none" xmlns="http://www.w3.org/2000/svg">
<path fill-rule="evenodd" clip-rule="evenodd" d="M7.97592 1.79389L9.51992 4.89989C9.59726 5.05655 9.74659 5.16589 9.91992 5.19122L13.3766 5.69055C13.5166 5.70922 13.6426 5.78255 13.7286 5.89455C13.8899 6.10455 13.8653 6.40189 13.6719 6.58255L11.1666 9.00522C11.0393 9.12522 10.9826 9.30122 11.0159 9.47255L11.6159 12.8912C11.6579 13.1746 11.4646 13.4399 11.1813 13.4859C11.0639 13.5039 10.9439 13.4852 10.8373 13.4326L7.75859 11.8186C7.60392 11.7346 7.41859 11.7346 7.26392 11.8186L4.16259 13.4412C3.90326 13.5732 3.58592 13.4752 3.44459 13.2212C3.39059 13.1186 3.37192 13.0019 3.39059 12.8879L3.99059 9.46922C4.02059 9.29855 3.96392 9.12322 3.83992 9.00255L1.32126 6.58055C1.11592 6.37655 1.11459 6.04455 1.31926 5.83922C1.31992 5.83855 1.32059 5.83722 1.32126 5.83655C1.40592 5.75989 1.50992 5.70855 1.62259 5.68855L5.07992 5.18922C5.25259 5.16189 5.40126 5.05389 5.47992 4.89722L7.02259 1.79389C7.08459 1.66789 7.19459 1.57122 7.32792 1.52722C7.46192 1.48255 7.60859 1.49322 7.73459 1.55655C7.83792 1.60789 7.92259 1.69122 7.97592 1.79389Z" stroke="#F8BF20" stroke-width="1.5" stroke-linecap="round" stroke-linejoin="round"/>
</svg>
