<svg width="17" height="17" fill="none" xmlns="http://www.w3.org/2000/svg"><g clip-path="url(#clip0)" fill="#1139FF"><path d="M15.606 4.136H2.816L5.211 1.74A.727.727 0 104.182.713L.546 4.349a.727.727 0 000 1.028l3.636 3.637a.725.725 0 001.029 0 .727.727 0 000-1.029L2.816 5.59h12.79a.727.727 0 000-1.454zm-3.122 3.85a.727.727 0 00-1.028 1.028l2.394 2.395H1.06a.727.727 0 100 1.455h12.79l-2.394 2.394a.727.727 0 101.028 1.029l3.636-3.636a.727.727 0 000-1.029l-3.636-3.636z"/></g><defs><clipPath id="clip0"><path fill="#fff" transform="translate(.333 .5)" d="M0 0h16v16H0z"/></clipPath></defs></svg>