<svg width="24" height="24" fill="none" xmlns="http://www.w3.org/2000/svg"><path d="M16.02 10.914a3.297 3.297 0 100-6.594m1.516 10.177a10.9 10.9 0 011.617.233c.74.147 1.63.45 1.945 1.113.202.425.202.92 0 1.345-.315.663-1.206.966-1.945 1.118" stroke="#200E32" stroke-width="1.5" stroke-linecap="round" stroke-linejoin="round"/><path clip-rule="evenodd" d="M9.591 15.207c3.69 0 6.842.558 6.842 2.791 0 2.235-3.131 2.813-6.842 2.813-3.69 0-6.84-.558-6.84-2.793 0-2.234 3.13-2.812 6.84-2.812zm.001-3.188a4.369 4.369 0 01-4.384-4.385A4.368 4.368 0 019.592 3.25a4.37 4.37 0 014.384 4.384 4.37 4.37 0 01-4.384 4.385z" stroke="#200E32" stroke-width="1.5" stroke-linecap="round" stroke-linejoin="round"/></svg>