<svg width="24" height="24" fill="none" xmlns="http://www.w3.org/2000/svg"><path clip-rule="evenodd" d="M2.99 4.874c.317-.525 2.06-2.43 3.303-2.373.372.032.7.256.968.517.613.6 2.368 2.863 2.468 3.34.242 1.168-1.15 1.842-.724 3.02 1.086 2.658 2.958 4.53 5.618 5.616 1.177.427 1.851-.965 3.02-.723.475.1 2.74 1.855 3.34 2.468.26.266.485.595.516.967.046 1.31-1.977 3.077-2.371 3.303-.93.666-2.145.654-3.624-.034-4.13-1.718-10.73-8.193-12.48-12.478-.67-1.472-.716-2.694-.034-3.623z" stroke="#200E32" stroke-width="1.5" stroke-linecap="round" stroke-linejoin="round"/><path d="M21.25 2.75l-6 6m0-6l6 6" stroke="#200E32" stroke-width="1.5" stroke-linecap="round" stroke-linejoin="round"/></svg>