<svg width="24" height="24" fill="none" xmlns="http://www.w3.org/2000/svg"><path d="M6.286 13.225C4.934 11.608 3.841 9.98 3.27 8.59c-.66-1.44-.7-2.63-.04-3.53.31-.51 2.01-2.37 3.221-2.31.36.03.68.25.94.5.3.29.88.99 1.39 1.67.51.68.97 1.35 1.01 1.58.24 1.14-1.12 1.8-.7 2.94.092.228.19.449.296.663M2.75 21.251l18.5-18.5M8.44 15.562c2.32 2.319 4.95 4.34 6.98 5.18 1.44.67 2.62.679 3.52.03.39-.221 2.36-1.94 2.31-3.221-.03-.359-.25-.679-.5-.939-.58-.601-2.79-2.311-3.25-2.401-1.14-.24-1.8 1.121-2.94.701-1.29-.531-2.4-1.25-3.31-2.161" stroke="#200E32" stroke-width="1.5" stroke-linecap="round" stroke-linejoin="round"/></svg>