<svg width="24" height="24" fill="none" xmlns="http://www.w3.org/2000/svg"><path clip-rule="evenodd" d="M17.638 7.11v0a.962.962 0 01-.87-.551c-.287-.608-.652-1.385-.868-1.808-.319-.63-.836-.995-1.552-1H9.652c-.716.005-1.232.37-1.552 1-.215.423-.58 1.2-.867 1.808a.963.963 0 01-.87.55v0a3.612 3.612 0 00-3.613 3.613v5.936a3.613 3.613 0 003.613 3.612h11.275a3.612 3.612 0 003.612-3.612v-5.936a3.612 3.612 0 00-3.612-3.612z" stroke="#200E32" stroke-width="1.5" stroke-linecap="round" stroke-linejoin="round"/><path clip-rule="evenodd" d="M8.821 13.334a3.19 3.19 0 003.18 3.186 3.19 3.19 0 003.177-3.179 3.186 3.186 0 00-3.175-3.189c-1.762-.002-3.196 1.453-3.182 3.182z" stroke="#200E32" stroke-width="1.5" stroke-linecap="round" stroke-linejoin="round"/><path d="M16.902 10.995a1.009 1.009 0 01-.62-.3 1.02 1.02 0 01-.282-.694 1.028 1.028 0 01.318-.736c.089-.078.18-.14.304-.195a1.023 1.023 0 011.082.215.961.961 0 01.19.262l.023.058a.98.98 0 01.083.396c0 .261-.102.503-.292.705a.996.996 0 01-.609.29L17 11l-.098-.005z" fill="#200E32"/></svg>