<svg width="16" height="17" fill="none" xmlns="http://www.w3.org/2000/svg"><g clip-path="url(#clip0)" fill="#1139FF"><path d="M11.429 3.357H1.714C.768 3.357 0 4.124 0 5.07v9.715c0 .946.768 1.714 1.714 1.714h9.715c.946 0 1.714-.768 1.714-1.714V5.07c0-.947-.768-1.714-1.714-1.714zM12 14.785a.571.571 0 01-.571.572H1.714a.571.571 0 01-.571-.571V5.07c0-.315.256-.571.571-.571h9.715c.315 0 .571.256.571.571v9.715z"/><path d="M14.286.5H4c-.947 0-1.714.768-1.714 1.714a.571.571 0 101.142 0c0-.315.256-.571.572-.571h10.286c.315 0 .571.256.571.571V12.5a.571.571 0 01-.571.571.571.571 0 000 1.143c.946 0 1.714-.767 1.714-1.714V2.214C16 1.268 15.232.5 14.286.5z"/></g><defs><clipPath id="clip0"><path fill="#fff" transform="translate(0 .5)" d="M0 0h16v16H0z"/></clipPath></defs></svg>