<svg width="24" height="24" fill="none" xmlns="http://www.w3.org/2000/svg"><path d="M11.492 2.79H7.753c-3.075 0-5.003 2.176-5.003 5.258v8.314c0 3.082 1.92 5.26 5.003 5.26h8.825c3.085 0 5.003-2.178 5.003-5.26v-4.028" stroke="#200E32" stroke-width="1.5" stroke-linecap="round" stroke-linejoin="round"/><path clip-rule="evenodd" d="M8.828 10.921l7.473-7.473c.931-.93 2.44-.93 3.371 0l1.217 1.217a2.383 2.383 0 010 3.371l-7.509 7.509a2.17 2.17 0 01-1.535.636H8.1l.094-3.78a2.17 2.17 0 01.635-1.48z" stroke="#200E32" stroke-width="1.5" stroke-linecap="round" stroke-linejoin="round"/><path d="M15.165 4.603l4.567 4.566" stroke="#200E32" stroke-width="1.5" stroke-linecap="round" stroke-linejoin="round"/></svg>