<svg width="24" height="24" fill="none" xmlns="http://www.w3.org/2000/svg"><path clip-rule="evenodd" d="M21.524 9.753a8.311 8.311 0 00-7.963-6.975.714.714 0 00-.742.686v.064l.449 6.71c.03.452.418.795.87.769l6.727-.449a.713.713 0 00.66-.769v-.036z" stroke="#200E32" stroke-width="1.5" stroke-linecap="round" stroke-linejoin="round"/><path d="M8.902 6.769a.915.915 0 011.043.522.824.824 0 01.082.302c.092 1.3.284 4.146.394 5.684a1.043 1.043 0 001.117.97v0l5.647-.348a.915.915 0 01.97.916v0A7.698 7.698 0 013.73 18.009a7.322 7.322 0 01-.915-2.8 4.723 4.723 0 01-.055-.916 7.707 7.707 0 016.132-7.524" stroke="#200E32" stroke-width="1.5" stroke-linecap="round" stroke-linejoin="round"/></svg>