<svg width="24" height="24" fill="none" xmlns="http://www.w3.org/2000/svg"><path clip-rule="evenodd" d="M16.303 2.75H7.655C4.64 2.75 2.75 4.884 2.75 7.904v8.15c0 3.02 1.881 5.154 4.904 5.154h8.648c3.024 0 4.905-2.134 4.905-5.154v-8.15c0-3.02-1.88-5.154-4.904-5.154z" stroke="#200E32" stroke-width="1.5" stroke-linecap="round" stroke-linejoin="round"/><path clip-rule="evenodd" d="M10.703 8.785a1.847 1.847 0 01-3.69 0 1.846 1.846 0 013.69 0z" stroke="#200E32" stroke-width="1.5" stroke-linecap="round" stroke-linejoin="round"/><path d="M21.207 14.95c-.994-.864-1.859-1.905-2.999-2.592-1.142-.688-2.369-.264-3.161.761-.765.992-1.243 2.325-2.398 2.95-1.423.77-2.259-.472-3.446-.97-1.325-.556-2.331.442-3.105 1.401-.775.96-1.56 1.91-2.348 2.86" stroke="#200E32" stroke-width="1.5" stroke-linecap="round" stroke-linejoin="round"/></svg>