<svg width="20" height="20" fill="none" xmlns="http://www.w3.org/2000/svg"><path clip-rule="evenodd" d="M19.21 5.9v8.15c0 3.02-1.89 5.15-4.91 5.15H5.65c-3.02 0-4.9-2.13-4.9-5.15V5.9C.75 2.88 2.64.751 5.65.751h8.65c3.02 0 4.91 2.129 4.91 5.149z" stroke="#1139FF" stroke-width="1.5" stroke-linecap="round" stroke-linejoin="round"/><path d="M3.281 14.432l1.53-1.613a1.405 1.405 0 012.031-.008l.885.903c.597.61 1.59.565 2.131-.094l2.23-2.71a1.687 1.687 0 012.514-.105l2.076 2.142" stroke="#1139FF" stroke-width="1.5" stroke-linecap="round" stroke-linejoin="round"/><path clip-rule="evenodd" d="M8.314 7.134a1.754 1.754 0 11-3.506 0 1.754 1.754 0 013.506 0z" stroke="#1139FF" stroke-width="1.5" stroke-linecap="round" stroke-linejoin="round"/></svg>