<svg width="24" height="24" fill="none" xmlns="http://www.w3.org/2000/svg"><path clip-rule="evenodd" d="M16.334 2.75H7.665c-3.02 0-4.915 2.139-4.915 5.166v8.168c0 3.027 1.884 5.166 4.915 5.166h8.669c3.03 0 4.916-2.139 4.916-5.166V7.916c0-3.027-1.886-5.166-4.916-5.166z" stroke="#200E32" stroke-width="1.5" stroke-linecap="round" stroke-linejoin="round"/><path d="M7.52 13.197a1.199 1.199 0 010-2.395 1.199 1.199 0 010 2.395m4.48 0a1.199 1.199 0 010-2.395 1.199 1.199 0 010 2.395m4.479 0a1.199 1.199 0 010-2.395 1.199 1.199 0 010 2.395" fill="#200E32"/></svg>