<svg width="171" height="40" fill="none" xmlns="http://www.w3.org/2000/svg"><path d="M59.502 32.242c-3.09 0-5.51-.747-7.261-2.242-1.729-1.518-2.647-3.706-2.755-6.567a87.719 87.719 0 01-.033-2.86c0-1.345.01-2.32.032-2.927.109-2.817 1.049-4.984 2.82-6.501 1.773-1.539 4.171-2.308 7.197-2.308 1.901 0 3.608.325 5.121.975 1.513.628 2.701 1.539 3.566 2.73.886 1.17 1.34 2.547 1.361 4.13v.064a.585.585 0 01-.227.455.686.686 0 01-.454.163h-4.376c-.28 0-.497-.054-.648-.163-.151-.13-.28-.357-.389-.682-.302-1.106-.778-1.875-1.426-2.309-.648-.455-1.502-.682-2.56-.682-2.55 0-3.869 1.43-3.955 4.29a80.744 80.744 0 00-.033 2.7c0 1.213.011 2.134.033 2.762.086 2.861 1.404 4.291 3.954 4.291 1.06 0 1.923-.227 2.593-.682.67-.477 1.135-1.247 1.394-2.308.087-.326.205-.542.357-.65.151-.13.378-.196.68-.196h4.376a.66.66 0 01.487.195c.15.13.216.293.194.488-.022 1.582-.475 2.97-1.361 4.161-.865 1.17-2.053 2.08-3.566 2.73-1.513.63-3.22.944-5.121.944zm13.91-.325a.861.861 0 01-.583-.227.867.867 0 01-.227-.585V9.649c0-.238.075-.433.227-.585a.861.861 0 01.583-.227h4.15c.237 0 .431.076.583.227a.793.793 0 01.227.585v7.25c1.296-1.474 3.003-2.21 5.121-2.21 1.254 0 2.366.28 3.339.844.994.564 1.772 1.398 2.334 2.504.562 1.105.842 2.438.842 3.998v9.07a.867.867 0 01-.227.585.788.788 0 01-.583.227h-4.181a.862.862 0 01-.584-.227.867.867 0 01-.227-.585V22.23c0-1.019-.248-1.799-.745-2.34-.476-.564-1.178-.846-2.107-.846-.93 0-1.664.282-2.204.845-.52.542-.778 1.322-.778 2.341v8.875a.793.793 0 01-.227.585.788.788 0 01-.584.227h-4.149zm25.328.325c-1.145 0-2.193-.216-3.144-.65-.929-.455-1.664-1.062-2.204-1.82a4.543 4.543 0 01-.778-2.568c0-1.496.605-2.698 1.815-3.609 1.232-.91 2.918-1.538 5.057-1.885l4.052-.618v-.455c0-.823-.173-1.43-.519-1.82-.345-.39-.929-.585-1.75-.585-.497 0-.908.086-1.232.26a5.433 5.433 0 00-1.005.715c-.302.26-.53.433-.68.52-.065.173-.184.26-.357.26h-3.533a.817.817 0 01-.551-.195.658.658 0 01-.162-.52c.021-.585.302-1.235.843-1.95.561-.716 1.404-1.333 2.528-1.854 1.145-.52 2.55-.78 4.214-.78 2.658 0 4.624.596 5.899 1.788 1.275 1.17 1.913 2.752 1.913 4.746v9.883a.868.868 0 01-.227.585.79.79 0 01-.584.227h-3.76a.86.86 0 01-.583-.227.864.864 0 01-.227-.585v-1.138c-.476.672-1.146 1.224-2.01 1.658-.843.412-1.847.617-3.014.617zm1.524-3.705c.994 0 1.794-.325 2.399-.976.626-.65.94-1.603.94-2.86v-.456l-2.756.488c-1.944.347-2.917 1.03-2.917 2.048 0 .542.227.975.68 1.3.455.304 1.006.456 1.654.456zm13.35 3.38a.79.79 0 01-.584-.227.795.795 0 01-.227-.585v-15.28c0-.237.076-.432.227-.584a.79.79 0 01.584-.228h3.727c.238 0 .433.076.584.228a.742.742 0 01.259.585v1.235c.584-.715 1.329-1.29 2.237-1.723.929-.433 1.977-.65 3.144-.65 1.902 0 3.447.65 4.635 1.95 1.189 1.28 1.783 3.078 1.783 5.397v9.07a.868.868 0 01-.227.585.788.788 0 01-.583.227h-4.085a.86.86 0 01-.583-.227.868.868 0 01-.227-.585V22.23c0-1.019-.248-1.799-.745-2.34-.497-.564-1.211-.846-2.14-.846-.907 0-1.621.282-2.139.845-.519.542-.778 1.322-.778 2.341v8.875a.868.868 0 01-.227.585.788.788 0 01-.583.227h-4.052zm28.284 7.153c-2.053 0-3.717-.337-4.992-1.008-1.275-.672-2.193-1.442-2.755-2.309-.54-.867-.811-1.593-.811-2.178 0-.195.087-.368.26-.52a.86.86 0 01.583-.227h4.117c.216 0 .378.043.486.13.13.108.249.281.357.52.216.498.507.888.875 1.17.367.303.94.455 1.718.455.994 0 1.729-.249 2.204-.748.475-.476.713-1.289.713-2.438V29.74c-1.102 1.214-2.679 1.82-4.732 1.82-2.183 0-3.858-.639-5.025-1.917-1.145-1.3-1.772-3.175-1.88-5.624l-.032-.878c0-2.622.583-4.68 1.75-6.176 1.167-1.517 2.896-2.276 5.187-2.276 1.102 0 2.074.217 2.917.65a6.28 6.28 0 012.139 1.69v-1.202c0-.239.076-.434.227-.585a.863.863 0 01.584-.228h3.727a.74.74 0 01.584.26.708.708 0 01.259.553v15.636c0 2.47-.735 4.356-2.204 5.657-1.47 1.3-3.555 1.95-6.256 1.95zm-.227-11.736c.972 0 1.696-.293 2.172-.878.475-.607.745-1.365.81-2.276.022-.151.033-.487.033-1.007 0-.499-.011-.824-.033-.975-.043-.91-.313-1.658-.81-2.244-.476-.606-1.2-.91-2.172-.91-1.016 0-1.75.304-2.204.91-.454.607-.703 1.442-.746 2.504l-.032.715c0 1.278.216 2.297.648 3.056.432.736 1.21 1.105 2.334 1.105zm20.285 4.908c-2.594 0-4.636-.704-6.127-2.112-1.491-1.41-2.269-3.457-2.334-6.145v-1.137c.087-2.558.876-4.551 2.367-5.982 1.512-1.452 3.533-2.178 6.061-2.178 1.837 0 3.382.38 4.635 1.138 1.275.737 2.226 1.755 2.853 3.056.648 1.3.972 2.795.972 4.486v.78a.863.863 0 01-.227.585.787.787 0 01-.583.228H159.2v.227c.044 1.019.292 1.842.746 2.47.454.63 1.113.944 1.977.944.54 0 .983-.109 1.329-.326.346-.238.659-.52.94-.845.195-.238.346-.379.454-.422.13-.065.324-.098.583-.098h4.02a.66.66 0 01.486.195.53.53 0 01.227.455c0 .564-.324 1.214-.972 1.95-.627.738-1.546 1.377-2.756 1.919-1.21.542-2.636.813-4.278.813zm2.722-10.5v-.065c0-1.062-.248-1.896-.745-2.503-.476-.628-1.145-.942-2.01-.942-.843 0-1.513.314-2.01.942-.475.607-.713 1.441-.713 2.503v.065h5.478z" fill="#000"/><path fill-rule="evenodd" clip-rule="evenodd" d="M36.672 8.075a20 20 0 013.546 7.951C40.656 18.192 38.825 20 36.616 20h-9.488a6.512 6.512 0 10-6.512 6.512c1.433 0 2.977.562 3.533 1.882l2.673 6.353c.857 2.037-.1 4.426-2.265 4.861A20.001 20.001 0 1136.672 8.075z" fill="#C4C4C4"/><path fill-rule="evenodd" clip-rule="evenodd" d="M36.672 8.075a20 20 0 013.546 7.951C40.656 18.192 38.825 20 36.616 20h-9.488a6.512 6.512 0 10-6.512 6.512c1.433 0 2.977.562 3.533 1.882l2.673 6.353c.857 2.037-.1 4.426-2.265 4.861A20.001 20.001 0 1136.672 8.075z" fill="url(#paint0_linear)"/><defs><linearGradient id="paint0_linear" x1="20.45" y1="0" x2="20.45" y2="40" gradientUnits="userSpaceOnUse"><stop stop-color="#5FD9F9"/><stop offset="1" stop-color="#5771F0"/></linearGradient></defs></svg>