<svg width="24" height="24" fill="none" xmlns="http://www.w3.org/2000/svg"><path clip-rule="evenodd" d="M20.806 7.623l-.622-1.08a1.913 1.913 0 00-2.609-.705v0a1.904 1.904 0 01-2.608-.677 1.832 1.832 0 01-.257-.915v0a1.913 1.913 0 00-1.913-1.968h-1.254A1.904 1.904 0 009.64 4.19v0a1.913 1.913 0 01-1.913 1.885 1.83 1.83 0 01-.915-.256v0a1.913 1.913 0 00-2.609.705l-.668 1.098a1.913 1.913 0 00.696 2.61v0a1.913 1.913 0 010 3.313v0a1.904 1.904 0 00-.696 2.6v0l.632 1.088a1.913 1.913 0 002.608.742v0a1.894 1.894 0 012.6.695c.164.278.253.593.256.916v0c0 1.056.857 1.913 1.913 1.913h1.254a1.913 1.913 0 001.913-1.904v0a1.904 1.904 0 011.913-1.913c.322.009.636.096.916.256v0a1.913 1.913 0 002.608-.695v0l.66-1.099a1.904 1.904 0 00-.696-2.609v0a1.904 1.904 0 01-.696-2.608c.166-.29.406-.53.696-.696v0a1.913 1.913 0 00.695-2.6v0-.009z" stroke="#200E32" stroke-width="1.5" stroke-linecap="round" stroke-linejoin="round"/><circle cx="12.175" cy="11.889" r="2.636" stroke="#200E32" stroke-width="1.5" stroke-linecap="round" stroke-linejoin="round"/></svg>