<svg width="24" height="24" fill="none" xmlns="http://www.w3.org/2000/svg"><path clip-rule="evenodd" d="M18.865 5.124c.437.153.729.565.729 1.028v6.773c0 1.893-.689 3.7-1.903 5.1-.612.705-1.384 1.254-2.205 1.698l-3.558 1.922-3.564-1.923c-.823-.444-1.596-.992-2.208-1.698a7.783 7.783 0 01-1.906-5.103V6.152c0-.463.292-.875.729-1.028l6.582-2.313a1.09 1.09 0 01.722 0l6.582 2.313z" stroke="#200E32" stroke-width="1.5" stroke-linecap="round" stroke-linejoin="round"/><path d="M13.801 13.846l-3.758-3.758m0 3.758l3.758-3.758" stroke="#200E32" stroke-width="1.5" stroke-linecap="round" stroke-linejoin="round"/></svg>