<svg width="31" height="28" fill="none" xmlns="http://www.w3.org/2000/svg"><path fill-rule="evenodd" clip-rule="evenodd" d="M16.6.805l3.571 7.182c.18.363.524.615.925.674l7.994 1.155c.324.043.615.212.814.471a1.186 1.186 0 01-.131 1.591l-5.794 5.603a1.175 1.175 0 00-.348 1.08l1.387 7.906a1.213 1.213 0 01-1.005 1.375 1.338 1.338 0 01-.795-.123l-7.12-3.732a1.195 1.195 0 00-1.144 0l-7.172 3.752c-.6.305-1.333.079-1.66-.509a1.225 1.225 0 01-.125-.77l1.388-7.906c.07-.395-.062-.8-.349-1.08l-5.824-5.6a1.211 1.211 0 01-.005-1.715l.005-.006c.196-.177.436-.296.697-.342l7.995-1.155c.4-.063.743-.313.925-.675L14.396.805c.144-.292.398-.515.706-.617a1.23 1.23 0 01.94.068c.24.118.435.311.559.549z" fill="#C4C4C4"/><path fill-rule="evenodd" clip-rule="evenodd" d="M16.6.805l3.571 7.182c.18.363.524.615.925.674l7.994 1.155c.324.043.615.212.814.471a1.186 1.186 0 01-.131 1.591l-5.794 5.603a1.175 1.175 0 00-.348 1.08l1.387 7.906a1.213 1.213 0 01-1.005 1.375 1.338 1.338 0 01-.795-.123l-7.12-3.732a1.195 1.195 0 00-1.144 0l-7.172 3.752c-.6.305-1.333.079-1.66-.509a1.225 1.225 0 01-.125-.77l1.388-7.906c.07-.395-.062-.8-.349-1.08l-5.824-5.6a1.211 1.211 0 01-.005-1.715l.005-.006c.196-.177.436-.296.697-.342l7.995-1.155c.4-.063.743-.313.925-.675L14.396.805c.144-.292.398-.515.706-.617a1.23 1.23 0 01.94.068c.24.118.435.311.559.549z" fill="url(#paint0_linear)"/><defs><linearGradient id="paint0_linear" x1="15.502" y1=".125" x2="15.502" y2="27.875" gradientUnits="userSpaceOnUse"><stop stop-color="#F8BF20"/><stop offset="1" stop-color="#FF753C"/></linearGradient></defs></svg>