<svg width="25" height="21" fill="none" xmlns="http://www.w3.org/2000/svg"><path fill-rule="evenodd" clip-rule="evenodd" d="M18.448 20.543c1.438.63 1.977-.689 1.977-.689L24.23.743c-.03-1.288-1.768-.51-1.768-.51L1.164 8.591s-1.019.36-.929.988c.09.63.899.93.899.93l5.362 1.796s1.617 5.303 1.947 6.321c.3.989.57 1.018.57 1.018.299.12.568-.09.568-.09l3.475-3.145 5.392 4.134zm.928-16.415s.75-.45.72 0c0 0 .12.06-.27.479-.36.36-8.837 7.968-9.976 8.986-.09.06-.15.15-.15.27l-.329 2.816c-.06.3-.45.33-.539.06l-1.408-4.613c-.06-.18 0-.39.18-.51l11.772-7.488z" fill="#1139FF"/></svg>