<svg width="24" height="24" fill="none" xmlns="http://www.w3.org/2000/svg"><path clip-rule="evenodd" d="M17.858 20.417a3.392 3.392 0 003.392-3.393v-2.7c-1.24 0-2.24-1-2.24-2.239 0-1.24 1-2.239 2.24-2.239l-.002-2.703a3.392 3.392 0 00-3.392-3.393H6.145a3.393 3.393 0 00-3.393 3.393v2.79c1.238 0 2.238.912 2.238 2.152 0 1.239-1 2.239-2.239 2.239v2.7a3.392 3.392 0 003.392 3.393h11.716z" stroke="#200E32" stroke-width="1.5" stroke-linecap="round" stroke-linejoin="round"/><path clip-rule="evenodd" d="M12 13.854l1.74.916a.223.223 0 00.323-.234l-.333-1.94 1.409-1.37a.222.222 0 00-.123-.38l-1.946-.283-.871-1.763a.222.222 0 00-.398 0l-.871 1.763-1.945.284a.222.222 0 00-.123.379l1.408 1.37-.333 1.94a.223.223 0 00.323.234l1.74-.915z" stroke="#200E32" stroke-width="1.5" stroke-linecap="round" stroke-linejoin="round"/></svg>