<svg width="23" height="24" fill="none" xmlns="http://www.w3.org/2000/svg"><path d="M20.43 2.342c-.596-.548-3.006-2.3-8.38-2.325 0 0-6.333-.384-9.42 2.45C.91 4.184.306 6.696.243 9.816.181 12.935.1 18.778 5.732 20.364h.004l-.004 2.415s-.034.98.61 1.176c.777.24 1.238-.504 1.983-1.306a71.96 71.96 0 001.397-1.58c3.85.322 6.813-.417 7.15-.528.777-.254 5.18-.816 5.896-6.66.74-6.012-.36-9.82-2.338-11.538zm.653 11.116c-.605 4.878-4.173 5.185-4.83 5.397-.28.091-2.882.74-6.157.523 0 0-2.439 2.944-3.198 3.707-.12.12-.259.168-.35.144-.13-.033-.168-.187-.163-.413 0-.326.019-4.019.019-4.019-.005 0-.005 0 0 0-4.768-1.32-4.49-6.295-4.437-8.898.053-2.602.543-4.739 1.998-6.175 2.607-2.362 7.99-2.012 7.99-2.012 4.542.02 6.717 1.388 7.222 1.844 1.675 1.44 2.53 4.874 1.906 9.902z" fill="#1139FF"/><path d="M14.265 9.99a.305.305 0 01-.303-.287c-.053-1.033-.538-1.537-1.527-1.59a.306.306 0 01.034-.61c1.306.072 2.036.822 2.103 2.166a.299.299 0 01-.288.317c-.01.005-.015.005-.02.005z" fill="#1139FF"/><path d="M15.82 10.51h-.005a.305.305 0 01-.297-.312c.023-1.037-.274-1.878-.908-2.57-.63-.69-1.498-1.065-2.646-1.147a.302.302 0 01-.278-.326.302.302 0 01.326-.279c1.297.096 2.32.548 3.05 1.345.734.802 1.09 1.805 1.065 2.991a.307.307 0 01-.307.298z" fill="#1139FF"/><path d="M17.414 11.133a.301.301 0 01-.302-.302c-.015-1.858-.548-3.275-1.633-4.336-1.07-1.047-2.43-1.58-4.028-1.594a.305.305 0 010-.61c1.762.014 3.26.605 4.446 1.767 1.19 1.162 1.8 2.766 1.82 4.763a.3.3 0 01-.303.313c.005 0 .005 0 0 0zm-4.907 2.617s.427.04.658-.244l.446-.562c.216-.279.74-.456 1.249-.173.283.159.797.475 1.114.71.34.25 1.032.827 1.037.831.331.279.408.687.182 1.124v.01c-.23.408-.542.792-.931 1.147-.005 0-.005.005-.01.005-.322.269-.638.423-.946.456-.038.01-.081.01-.14.01-.133 0-.268-.02-.402-.063l-.01-.014c-.48-.134-1.277-.47-2.603-1.205a15.46 15.46 0 01-2.19-1.446 11.203 11.203 0 01-.984-.873l-.033-.034-.034-.034-.033-.033-.034-.034c-.331-.336-.62-.663-.874-.984a15.181 15.181 0 01-1.445-2.19c-.735-1.33-1.071-2.127-1.205-2.602l-.015-.01a1.308 1.308 0 01-.062-.403c0-.058 0-.101.01-.14.038-.312.191-.624.455-.946 0-.004.005-.004.005-.01.356-.393.74-.7 1.148-.93h.01c.432-.226.84-.15 1.123.182 0 0 .581.696.83 1.037.236.322.553.83.711 1.114.284.509.106 1.032-.172 1.248l-.562.447c-.284.23-.245.658-.245.658s.83 3.16 3.952 3.952z" fill="#1139FF"/></svg>