<svg width="24" height="24" fill="none" xmlns="http://www.w3.org/2000/svg"><path clip-rule="evenodd" d="M14.871 16.892c-.071.586-.092 1.162-.252 1.759-.255.85-.92 1.37-1.639 1.348-.34.009-.82-.199-1.143-.47l-3.767-3.06h-2.1c-1.01 0-1.693-.69-1.83-1.825-.197-1.398-.179-3.924 0-5.35.137-.986.82-1.762 1.83-1.762h2.1l3.689-3.007c.323-.274.88-.532 1.221-.524.719-.021 1.384.5 1.639 1.348.142.543.18 1.174.252 1.76.172 1.37.172 8.413 0 9.783z" stroke="#200E32" stroke-width="1.5" stroke-linecap="round" stroke-linejoin="round"/><path d="M18.717 6.574c.961 1.383 1.538 3.238 1.538 5.302 0 2.065-.577 3.919-1.538 5.302" stroke="#200E32" stroke-width="1.5" stroke-linecap="round" stroke-linejoin="round"/></svg>