<svg width="24" height="24" fill="none" xmlns="http://www.w3.org/2000/svg"><path clip-rule="evenodd" d="M12.472 17.142c-.072.586-.093 1.162-.253 1.759-.255.85-.92 1.37-1.639 1.348-.34.009-.82-.199-1.143-.47l-3.767-3.06H3.572c-1.012 0-1.694-.69-1.831-1.825-.197-1.398-.178-3.924 0-5.35.137-.986.819-1.762 1.83-1.762h2.1l3.688-3.007c.323-.274.88-.532 1.221-.524.719-.021 1.384.5 1.64 1.348.141.543.18 1.174.252 1.76.171 1.37.171 8.413 0 9.783z" stroke="#200E32" stroke-width="1.5" stroke-linecap="round" stroke-linejoin="round"/><path d="M16.443 7.06c.908 1.307 1.453 3.058 1.453 5.009 0 1.95-.545 3.7-1.453 5.007M19.875 4c1.462 2.104 2.34 4.926 2.34 8.068 0 3.142-.878 5.965-2.34 8.069" stroke="#200E32" stroke-width="1.5" stroke-linecap="round" stroke-linejoin="round"/></svg>