<svg width="24" height="24" fill="none" xmlns="http://www.w3.org/2000/svg"><path d="M7.89 16.383H5.779c-1.017 0-1.703-.696-1.842-1.844-.198-1.412-.18-3.964 0-5.406.139-.995.825-1.779 1.842-1.779h2.113l3.713-3.038c.325-.276.887-.537 1.23-.53.722-.021 1.393.505 1.65 1.364.142.547.18 1.185.253 1.776.072.575.114.523.126 2.257m-.004 5.008c-.02 1.337-.065 2.15-.123 2.619-.072.59-.093 1.174-.253 1.776-.257.86-.928 1.385-1.65 1.362-.343.009-.827-.2-1.152-.475l-1.396-1.14M20.995 3.294L3.848 20.442" stroke="#200E32" stroke-width="1.5" stroke-linecap="round" stroke-linejoin="round"/></svg>