<svg width="25" height="24" fill="none" xmlns="http://www.w3.org/2000/svg"><path d="M20.792 3.503C18.586 1.233 15.538 0 12.424 0 5.808 0 .49 5.384.554 11.935c0 2.076.584 4.087 1.557 5.903L.424 24l6.292-1.622c1.752.973 3.698 1.427 5.644 1.427 6.55 0 11.87-5.383 11.87-11.935 0-3.178-1.233-6.162-3.438-8.367zm-8.368 18.292c-1.751 0-3.502-.455-4.994-1.363l-.39-.194-3.762.973.973-3.697-.26-.39C1.139 12.52 2.5 6.422 7.172 3.568c4.668-2.854 10.7-1.492 13.554 3.178 2.854 4.67 1.492 10.703-3.178 13.557-1.492.973-3.308 1.492-5.125 1.492zm5.708-7.2l-.713-.325s-1.038-.454-1.687-.778c-.064 0-.13-.065-.194-.065-.195 0-.325.065-.454.13 0 0-.065.065-.973 1.102a.357.357 0 01-.325.195h-.064a.491.491 0 01-.26-.13l-.324-.13c-.714-.324-1.362-.713-1.881-1.232-.13-.13-.325-.26-.454-.389-.454-.454-.908-.973-1.233-1.557l-.065-.13c-.064-.064-.064-.13-.13-.259 0-.13 0-.26.066-.324 0 0 .259-.325.454-.52.13-.129.194-.324.324-.453.13-.195.195-.454.13-.649-.065-.324-.844-2.076-1.038-2.465-.13-.194-.26-.26-.454-.324h-.714c-.13 0-.26.065-.389.065l-.065.065c-.13.064-.26.194-.389.26-.13.129-.195.259-.324.388a3.308 3.308 0 00-.714 2.011c0 .519.13 1.038.324 1.492l.065.195a10.807 10.807 0 002.4 3.308l.26.26c.194.194.389.323.519.518 1.362 1.168 2.919 2.01 4.67 2.465.195.065.454.065.649.13h.648c.325 0 .714-.13.973-.26.195-.13.325-.13.454-.26l.13-.129c.13-.13.26-.195.39-.324.129-.13.259-.26.324-.39.13-.259.194-.583.259-.908v-.454s-.065-.065-.195-.13z" fill="#1139FF"/></svg>