<svg width="20" height="20" viewBox="0 0 20 20" fill="none" xmlns="http://www.w3.org/2000/svg">
<path fill-rule="evenodd" clip-rule="evenodd" d="M19.21 5.89973V14.0497C19.21 17.0697 17.32 19.1997 14.3 19.1997H5.65C2.63 19.1997 0.75 17.0697 0.75 14.0497V5.89973C0.75 2.87973 2.64 0.750732 5.65 0.750732H14.3C17.32 0.750732 19.21 2.87973 19.21 5.89973Z" stroke="#58708E" stroke-width="1.5" stroke-linecap="round" stroke-linejoin="round"/>
<path d="M3.28125 14.4319L4.81025 12.8189C5.36125 12.2369 6.28625 12.2339 6.84225 12.8109L7.72725 13.7139C8.32425 14.3229 9.31725 14.2789 9.85825 13.6199L12.0872 10.9089C12.7272 10.1299 13.9013 10.0819 14.6023 10.8049L16.6783 12.9469" stroke="#58708E" stroke-width="1.5" stroke-linecap="round" stroke-linejoin="round"/>
<path fill-rule="evenodd" clip-rule="evenodd" d="M8.31364 7.13413C8.31364 8.10213 7.52764 8.88813 6.55964 8.88813C5.59164 8.88813 4.80664 8.10213 4.80664 7.13413C4.80664 6.16613 5.59164 5.38013 6.55964 5.38013C7.52764 5.38013 8.31364 6.16613 8.31364 7.13413Z" stroke="#58708E" stroke-width="1.5" stroke-linecap="round" stroke-linejoin="round"/>
</svg>
