<svg width="24" height="24" viewBox="0 0 24 24" fill="none" xmlns="http://www.w3.org/2000/svg">
<path d="M6.28636 13.2249C4.93436 11.6079 3.84136 9.97989 3.26936 8.59089C2.60936 7.15189 2.56936 5.96089 3.22936 5.06189C3.53936 4.55089 5.23936 2.69189 6.45036 2.75089C6.80936 2.78189 7.12936 3.00089 7.39036 3.25089C7.68936 3.54089 8.26936 4.24189 8.77936 4.92089C9.28936 5.60189 9.74936 6.27189 9.78936 6.50089C10.0294 7.64088 8.66936 8.30088 9.08936 9.44188C9.18236 9.66888 9.28036 9.88989 9.38636 10.1039" stroke="#200E32" stroke-width="1.5" stroke-linecap="round" stroke-linejoin="round"/>
<path d="M2.75 21.251L21.25 2.75098" stroke="#200E32" stroke-width="1.5" stroke-linecap="round" stroke-linejoin="round"/>
<path d="M8.43994 15.562C10.7599 17.881 13.3899 19.902 15.4199 20.742C16.8599 21.412 18.0399 21.421 18.9399 20.772C19.3299 20.551 21.2999 18.832 21.2499 17.551C21.2199 17.192 20.9999 16.872 20.7499 16.612C20.1699 16.011 17.9599 14.301 17.4999 14.211C16.3599 13.971 15.6999 15.332 14.5599 14.912C13.2699 14.381 12.1599 13.662 11.2499 12.751" stroke="#200E32" stroke-width="1.5" stroke-linecap="round" stroke-linejoin="round"/>
</svg>
