<svg width="16" height="17" viewBox="0 0 16 17" fill="none" xmlns="http://www.w3.org/2000/svg">
<g clip-path="url(#clip0)">
<path d="M11.4286 3.35693H1.71428C0.767511 3.35693 0 4.12444 0 5.07122V14.7855C0 15.7323 0.767511 16.4998 1.71428 16.4998H11.4286C12.3753 16.4998 13.1428 15.7323 13.1428 14.7855V5.07122C13.1428 4.12444 12.3753 3.35693 11.4286 3.35693ZM12 14.7855C12 15.1011 11.7442 15.357 11.4286 15.357H1.71428C1.39868 15.357 1.14285 15.1011 1.14285 14.7855V5.07122C1.14285 4.75562 1.39868 4.49978 1.71428 4.49978H11.4286C11.7442 4.49978 12 4.75562 12 5.07122V14.7855Z" fill="#58708E"/>
<path d="M14.2856 0.5H3.99993C3.05316 0.5 2.28564 1.26751 2.28564 2.21428C2.28564 2.52989 2.54148 2.78572 2.85708 2.78572C3.17269 2.78572 3.42849 2.52989 3.42849 2.21428C3.42849 1.89868 3.68433 1.64285 3.99993 1.64285H14.2856C14.6012 1.64285 14.8571 1.89868 14.8571 2.21428V12.5C14.8571 12.8156 14.6012 13.0714 14.2856 13.0714C13.97 13.0714 13.7142 13.3273 13.7142 13.6429C13.7142 13.9585 13.97 14.2143 14.2856 14.2143C15.2324 14.2143 15.9999 13.4468 15.9999 12.5V2.21428C15.9999 1.26751 15.2324 0.5 14.2856 0.5Z" fill="#58708E"/>
</g>
<defs>
<clipPath id="clip0">
<rect width="16" height="16" fill="white" transform="translate(0 0.5)"/>
</clipPath>
</defs>
</svg>
