<svg width="24" height="24" viewBox="0 0 24 24" fill="none" xmlns="http://www.w3.org/2000/svg">
<path fill-rule="evenodd" clip-rule="evenodd" d="M16.3035 2.75049H7.65449C4.63949 2.75049 2.75049 4.88449 2.75049 7.90449V16.0535C2.75049 19.0735 4.63149 21.2075 7.65449 21.2075H16.3025C19.3265 21.2075 21.2075 19.0735 21.2075 16.0535V7.90449C21.2075 4.88449 19.3265 2.75049 16.3035 2.75049Z" stroke="#200E32" stroke-width="1.5" stroke-linecap="round" stroke-linejoin="round"/>
<path fill-rule="evenodd" clip-rule="evenodd" d="M10.7032 8.78545C10.7032 9.80445 9.87621 10.6315 8.85721 10.6315C7.83921 10.6315 7.01221 9.80445 7.01221 8.78545C7.01221 7.76645 7.83921 6.93945 8.85721 6.93945C9.87621 6.93945 10.7032 7.76645 10.7032 8.78545Z" stroke="#200E32" stroke-width="1.5" stroke-linecap="round" stroke-linejoin="round"/>
<path d="M21.207 14.9505C20.213 14.0855 19.348 13.0445 18.208 12.3575C17.066 11.6705 15.839 12.0945 15.047 13.1195C14.282 14.1105 13.804 15.4435 12.649 16.0685C11.226 16.8395 10.39 15.5965 9.203 15.0985C7.878 14.5435 6.872 15.5415 6.098 16.5005C5.323 17.4605 4.538 18.4105 3.75 19.3605" stroke="#200E32" stroke-width="1.5" stroke-linecap="round" stroke-linejoin="round"/>
</svg>
