<svg width="20" height="20" viewBox="0 0 20 20" fill="none" xmlns="http://www.w3.org/2000/svg">
<path fill-rule="evenodd" clip-rule="evenodd" d="M19.21 5.89998V14.05C19.21 17.07 17.32 19.2 14.3 19.2H5.65C2.63 19.2 0.75 17.07 0.75 14.05V5.89998C0.75 2.87998 2.64 0.750977 5.65 0.750977H14.3C17.32 0.750977 19.21 2.87998 19.21 5.89998Z" stroke="#1139FF" stroke-width="1.5" stroke-linecap="round" stroke-linejoin="round"/>
<path d="M3.28125 14.4322L4.81025 12.8192C5.36125 12.2372 6.28625 12.2342 6.84225 12.8112L7.72725 13.7142C8.32425 14.3232 9.31725 14.2792 9.85825 13.6202L12.0872 10.9092C12.7272 10.1302 13.9013 10.0822 14.6023 10.8052L16.6783 12.9472" stroke="#1139FF" stroke-width="1.5" stroke-linecap="round" stroke-linejoin="round"/>
<path fill-rule="evenodd" clip-rule="evenodd" d="M8.31364 7.13437C8.31364 8.10237 7.52764 8.88837 6.55964 8.88837C5.59164 8.88837 4.80664 8.10237 4.80664 7.13437C4.80664 6.16637 5.59164 5.38037 6.55964 5.38037C7.52764 5.38037 8.31364 6.16637 8.31364 7.13437Z" stroke="#1139FF" stroke-width="1.5" stroke-linecap="round" stroke-linejoin="round"/>
</svg>
