<svg width="24" height="24" viewBox="0 0 24 24" fill="none" xmlns="http://www.w3.org/2000/svg">
<path fill-rule="evenodd" clip-rule="evenodd" d="M16.3345 2.75H7.66549C4.64449 2.75 2.75049 4.889 2.75049 7.916V16.084C2.75049 19.111 4.63449 21.25 7.66549 21.25H16.3335C19.3645 21.25 21.2505 19.111 21.2505 16.084V7.916C21.2505 4.889 19.3645 2.75 16.3345 2.75Z" stroke="#200E32" stroke-width="1.5" stroke-linecap="round" stroke-linejoin="round"/>
<path d="M7.52075 13.1972C6.85975 13.1972 6.32275 12.6602 6.32275 12.0002C6.32275 11.3402 6.85975 10.8022 7.52075 10.8022C8.18175 10.8022 8.71875 11.3402 8.71875 12.0002C8.71875 12.6602 8.18175 13.1972 7.52075 13.1972" fill="#200E32"/>
<path d="M11.9998 13.1972C11.3388 13.1972 10.8018 12.6602 10.8018 12.0002C10.8018 11.3402 11.3388 10.8022 11.9998 10.8022C12.6608 10.8022 13.1978 11.3402 13.1978 12.0002C13.1978 12.6602 12.6608 13.1972 11.9998 13.1972" fill="#200E32"/>
<path d="M16.4788 13.1972C15.8178 13.1972 15.2808 12.6602 15.2808 12.0002C15.2808 11.3402 15.8178 10.8022 16.4788 10.8022C17.1398 10.8022 17.6768 11.3402 17.6768 12.0002C17.6768 12.6602 17.1398 13.1972 16.4788 13.1972" fill="#200E32"/>
</svg>
