<svg width="171" height="40" viewBox="0 0 171 40" fill="none" xmlns="http://www.w3.org/2000/svg">
<path d="M59.5016 32.2425C56.4114 32.2425 53.9911 31.4948 52.2408 29.9995C50.512 28.4824 49.5936 26.2935 49.4855 23.4328C49.4639 22.8477 49.4531 21.8941 49.4531 20.5721C49.4531 19.2284 49.4639 18.2532 49.4855 17.6464C49.5936 14.829 50.5336 12.6618 52.3056 11.1447C54.0776 9.60603 56.4763 8.83667 59.5016 8.83667C61.4033 8.83667 63.1104 9.16175 64.6231 9.81191C66.1358 10.4404 67.3243 11.3506 68.1887 12.5426C69.0747 13.7129 69.5285 15.0891 69.5501 16.6711V16.7361C69.5501 16.9095 69.4745 17.0612 69.3232 17.1913C69.1935 17.2996 69.0423 17.3538 68.8694 17.3538H64.4934C64.2125 17.3538 63.9964 17.2996 63.8451 17.1913C63.6939 17.0612 63.5642 16.8337 63.4562 16.5086C63.1536 15.4033 62.6782 14.634 62.0299 14.2005C61.3816 13.7454 60.5281 13.5178 59.4692 13.5178C56.9193 13.5178 55.6011 14.9482 55.5146 17.8089C55.493 18.3941 55.4822 19.2934 55.4822 20.5071C55.4822 21.7207 55.493 22.6418 55.5146 23.2703C55.6011 26.131 56.9193 27.5613 59.4692 27.5613C60.5281 27.5613 61.3924 27.3338 62.0623 26.8787C62.7322 26.4019 63.1969 25.6325 63.4562 24.5706C63.5426 24.2455 63.6615 24.0288 63.8127 23.9204C63.964 23.7904 64.1909 23.7254 64.4934 23.7254H68.8694C69.0639 23.7254 69.2259 23.7904 69.3556 23.9204C69.5069 24.0505 69.5717 24.213 69.5501 24.4081C69.5285 25.9901 69.0747 27.3771 68.1887 28.5691C67.3243 29.7394 66.1358 30.6496 64.6231 31.2998C63.1104 31.9283 61.4033 32.2425 59.5016 32.2425Z" fill="black"/>
<path d="M73.4122 31.9174C73.1961 31.9174 73.0016 31.8416 72.8288 31.6899C72.6775 31.5165 72.6019 31.3215 72.6019 31.1047V9.64937C72.6019 9.41098 72.6775 9.21593 72.8288 9.06423C73.0016 8.91252 73.1961 8.83667 73.4122 8.83667H77.5613C77.799 8.83667 77.9935 8.91252 78.1447 9.06423C78.296 9.21593 78.3716 9.41098 78.3716 9.64937V16.8987C79.6682 15.425 81.3754 14.6881 83.4931 14.6881C84.7465 14.6881 85.8594 14.9699 86.8318 15.5333C87.8258 16.0968 88.6038 16.9312 89.1656 18.0365C89.7275 19.1417 90.0084 20.4746 90.0084 22.035V31.1047C90.0084 31.3215 89.9328 31.5165 89.7815 31.6899C89.6302 31.8416 89.4358 31.9174 89.1981 31.9174H85.0166C84.8005 31.9174 84.606 31.8416 84.4331 31.6899C84.2819 31.5165 84.2062 31.3215 84.2062 31.1047V22.23C84.2062 21.2114 83.9577 20.4312 83.4607 19.8894C82.9853 19.326 82.283 19.0442 81.3538 19.0442C80.4245 19.0442 79.6898 19.326 79.1496 19.8894C78.6309 20.4312 78.3716 21.2114 78.3716 22.23V31.1047C78.3716 31.3431 78.296 31.5382 78.1447 31.6899C77.9935 31.8416 77.799 31.9174 77.5613 31.9174H73.4122Z" fill="black"/>
<path d="M98.7406 32.2425C97.5952 32.2425 96.5472 32.0258 95.5964 31.5924C94.6671 31.1372 93.9324 30.5304 93.3922 29.7719C92.8735 28.9917 92.6142 28.1357 92.6142 27.2038C92.6142 25.7084 93.2193 24.5056 94.4294 23.5954C95.6612 22.6851 97.3467 22.0566 99.4861 21.7099L103.538 21.0922V20.6371C103.538 19.8136 103.365 19.2068 103.019 18.8167C102.674 18.4266 102.09 18.2315 101.269 18.2315C100.772 18.2315 100.361 18.3182 100.037 18.4916C99.713 18.665 99.378 18.9034 99.0323 19.2068C98.7298 19.4668 98.5029 19.6402 98.3516 19.7269C98.2868 19.9003 98.1679 19.987 97.995 19.987H94.4619C94.2458 19.987 94.0621 19.9219 93.9108 19.7919C93.7811 19.6402 93.7271 19.4668 93.7487 19.2718C93.7703 18.6866 94.0513 18.0365 94.5915 17.3213C95.1534 16.6061 95.9961 15.9885 97.1198 15.4683C98.2651 14.9482 99.6698 14.6881 101.334 14.6881C103.992 14.6881 105.958 15.2841 107.233 16.4761C108.508 17.6464 109.146 19.2284 109.146 21.2223V31.1047C109.146 31.3215 109.07 31.5165 108.919 31.6899C108.767 31.8416 108.573 31.9174 108.335 31.9174H104.575C104.359 31.9174 104.165 31.8416 103.992 31.6899C103.84 31.5165 103.765 31.3215 103.765 31.1047V29.9669C103.289 30.6388 102.619 31.1914 101.755 31.6249C100.912 32.0366 99.9075 32.2425 98.7406 32.2425ZM100.264 28.5366C101.258 28.5366 102.058 28.2115 102.663 27.5613C103.289 26.9112 103.603 25.9576 103.603 24.7006V24.2455L100.847 24.7331C98.9026 25.0799 97.9302 25.7626 97.9302 26.7812C97.9302 27.323 98.1571 27.7564 98.6109 28.0815C99.0647 28.3849 99.6157 28.5366 100.264 28.5366Z" fill="black"/>
<path d="M113.614 31.9174C113.376 31.9174 113.182 31.8416 113.03 31.6899C112.879 31.5382 112.803 31.3431 112.803 31.1047V15.8259C112.803 15.5875 112.879 15.3925 113.03 15.2408C113.182 15.0891 113.376 15.0132 113.614 15.0132H117.341C117.579 15.0132 117.774 15.0891 117.925 15.2408C118.098 15.3925 118.184 15.5875 118.184 15.8259V17.0612C118.768 16.346 119.513 15.7717 120.421 15.3383C121.35 14.9049 122.398 14.6881 123.565 14.6881C125.467 14.6881 127.012 15.3383 128.2 16.6386C129.389 17.9173 129.983 19.7161 129.983 22.035V31.1047C129.983 31.3215 129.907 31.5165 129.756 31.6899C129.605 31.8416 129.41 31.9174 129.173 31.9174H125.088C124.872 31.9174 124.678 31.8416 124.505 31.6899C124.354 31.5165 124.278 31.3215 124.278 31.1047V22.23C124.278 21.2114 124.03 20.4312 123.533 19.8894C123.036 19.326 122.322 19.0442 121.393 19.0442C120.486 19.0442 119.772 19.326 119.254 19.8894C118.735 20.4312 118.476 21.2114 118.476 22.23V31.1047C118.476 31.3215 118.4 31.5165 118.249 31.6899C118.098 31.8416 117.903 31.9174 117.666 31.9174H113.614Z" fill="black"/>
<path d="M141.898 39.0692C139.845 39.0692 138.181 38.7333 136.906 38.0615C135.631 37.3896 134.713 36.6203 134.151 35.7534C133.611 34.8865 133.34 34.1605 133.34 33.5753C133.34 33.3803 133.427 33.2069 133.6 33.0552C133.773 32.9035 133.967 32.8277 134.183 32.8277H138.3C138.516 32.8277 138.678 32.871 138.786 32.9577C138.916 33.0661 139.035 33.2394 139.143 33.4778C139.359 33.9763 139.65 34.3664 140.018 34.6481C140.385 34.9515 140.958 35.1032 141.736 35.1032C142.73 35.1032 143.465 34.854 143.94 34.3555C144.415 33.8788 144.653 33.0661 144.653 31.9174V29.7394C143.551 30.953 141.974 31.5598 139.921 31.5598C137.738 31.5598 136.063 30.9205 134.896 29.6419C133.751 28.3415 133.124 26.4669 133.016 24.018L132.984 23.1402C132.984 20.5179 133.567 18.4591 134.734 16.9637C135.901 15.4467 137.63 14.6881 139.921 14.6881C141.023 14.6881 141.995 14.9049 142.838 15.3383C143.681 15.7501 144.394 16.3135 144.977 17.0287V15.8259C144.977 15.5875 145.053 15.3925 145.204 15.2408C145.377 15.0891 145.572 15.0132 145.788 15.0132H149.515C149.753 15.0132 149.947 15.0999 150.099 15.2733C150.272 15.425 150.358 15.6092 150.358 15.8259V31.4623C150.358 33.9329 149.623 35.8184 148.154 37.1187C146.684 38.4191 144.599 39.0692 141.898 39.0692ZM141.671 27.3338C142.643 27.3338 143.367 27.0412 143.843 26.4561C144.318 25.8493 144.588 25.0907 144.653 24.1805C144.675 24.0288 144.686 23.6929 144.686 23.1728C144.686 22.6743 144.675 22.3492 144.653 22.1975C144.61 21.2873 144.34 20.5396 143.843 19.9544C143.367 19.3476 142.643 19.0442 141.671 19.0442C140.655 19.0442 139.921 19.3476 139.467 19.9544C139.013 20.5613 138.764 21.3956 138.721 22.4576L138.689 23.1728C138.689 24.4514 138.905 25.47 139.337 26.2285C139.769 26.9654 140.547 27.3338 141.671 27.3338Z" fill="black"/>
<path d="M161.956 32.2425C159.362 32.2425 157.32 31.5382 155.829 30.1295C154.338 28.7208 153.56 26.6728 153.495 23.9855V22.8477C153.582 20.2904 154.371 18.2965 155.862 16.8662C157.374 15.4141 159.395 14.6881 161.923 14.6881C163.76 14.6881 165.305 15.0674 166.558 15.8259C167.833 16.5628 168.784 17.5814 169.411 18.8817C170.059 20.182 170.383 21.6774 170.383 23.3678V24.148C170.383 24.3647 170.308 24.5598 170.156 24.7331C170.005 24.8848 169.811 24.9607 169.573 24.9607H159.2V25.1883C159.244 26.2068 159.492 27.0304 159.946 27.6589C160.4 28.2874 161.059 28.6016 161.923 28.6016C162.463 28.6016 162.906 28.4932 163.252 28.2765C163.598 28.0381 163.911 27.7564 164.192 27.4313C164.387 27.1929 164.538 27.0521 164.646 27.0087C164.776 26.9437 164.97 26.9112 165.229 26.9112H169.249C169.443 26.9112 169.605 26.9762 169.735 27.1062C169.886 27.2146 169.962 27.3663 169.962 27.5613C169.962 28.1248 169.638 28.775 168.99 29.5118C168.363 30.2487 167.444 30.888 166.234 31.4298C165.024 31.9716 163.598 32.2425 161.956 32.2425ZM164.678 21.7424V21.6774C164.678 20.6154 164.43 19.7811 163.933 19.1743C163.457 18.5458 162.788 18.2315 161.923 18.2315C161.08 18.2315 160.41 18.5458 159.913 19.1743C159.438 19.7811 159.2 20.6154 159.2 21.6774V21.7424H164.678Z" fill="black"/>
<path fill-rule="evenodd" clip-rule="evenodd" d="M36.672 8.07474C38.4331 10.4458 39.6371 13.1635 40.2175 16.0265C40.6565 18.1916 38.8253 20 36.6162 20H27.1279C27.1279 20 27.1278 20 27.1278 19.9999C27.1278 16.4036 24.2125 13.4883 20.6162 13.4883C17.0199 13.4883 14.1046 16.4036 14.1046 19.9999C14.1046 23.5962 17.0199 26.5115 20.6162 26.5115C22.0487 26.5115 23.593 27.074 24.1486 28.3943L26.8221 34.7474C27.6789 36.7836 26.7224 39.1728 24.5565 39.608C21.6925 40.1835 18.7206 40.1278 15.852 39.4243C11.6802 38.401 7.94861 36.0618 5.2096 32.7529C2.4706 29.4439 0.869712 25.341 0.643881 21.0515C0.418049 16.7619 1.57927 12.5136 3.95569 8.93534C6.3321 5.35707 9.79742 2.63898 13.8388 1.18335C17.8801 -0.272274 22.2827 -0.388085 26.395 0.85306C30.5073 2.09421 34.1107 4.62635 36.672 8.07474Z" fill="#C4C4C4"/>
<path fill-rule="evenodd" clip-rule="evenodd" d="M36.672 8.07474C38.4331 10.4458 39.6371 13.1635 40.2175 16.0265C40.6565 18.1916 38.8253 20 36.6162 20H27.1279C27.1279 20 27.1278 20 27.1278 19.9999C27.1278 16.4036 24.2125 13.4883 20.6162 13.4883C17.0199 13.4883 14.1046 16.4036 14.1046 19.9999C14.1046 23.5962 17.0199 26.5115 20.6162 26.5115C22.0487 26.5115 23.593 27.074 24.1486 28.3943L26.8221 34.7474C27.6789 36.7836 26.7224 39.1728 24.5565 39.608C21.6925 40.1835 18.7206 40.1278 15.852 39.4243C11.6802 38.401 7.94861 36.0618 5.2096 32.7529C2.4706 29.4439 0.869712 25.341 0.643881 21.0515C0.418049 16.7619 1.57927 12.5136 3.95569 8.93534C6.3321 5.35707 9.79742 2.63898 13.8388 1.18335C17.8801 -0.272274 22.2827 -0.388085 26.395 0.85306C30.5073 2.09421 34.1107 4.62635 36.672 8.07474Z" fill="url(#paint0_linear)"/>
<defs>
<linearGradient id="paint0_linear" x1="20.4496" y1="0" x2="20.4496" y2="40" gradientUnits="userSpaceOnUse">
<stop stop-color="#5FD9F9"/>
<stop offset="1" stop-color="#5771F0"/>
</linearGradient>
</defs>
</svg>
