<svg width="24" height="24" viewBox="0 0 24 24" fill="none" xmlns="http://www.w3.org/2000/svg">
<path fill-rule="evenodd" clip-rule="evenodd" d="M18.865 5.12401C19.302 5.27701 19.594 5.68901 19.594 6.15201V12.925C19.594 14.818 18.905 16.625 17.691 18.025C17.079 18.73 16.307 19.279 15.486 19.723L11.928 21.645L8.364 19.722C7.541 19.278 6.768 18.73 6.156 18.024C4.94 16.624 4.25 14.816 4.25 12.921V6.15201C4.25 5.68901 4.542 5.27701 4.979 5.12401L11.561 2.81101C11.795 2.72901 12.05 2.72901 12.283 2.81101L18.865 5.12401Z" stroke="#200E32" stroke-width="1.5" stroke-linecap="round" stroke-linejoin="round"/>
<path d="M13.801 13.8464L10.043 10.0884" stroke="#200E32" stroke-width="1.5" stroke-linecap="round" stroke-linejoin="round"/>
<path d="M10.043 13.8464L13.801 10.0884" stroke="#200E32" stroke-width="1.5" stroke-linecap="round" stroke-linejoin="round"/>
</svg>
