<svg width="31" height="28" viewBox="0 0 31 28" fill="none" xmlns="http://www.w3.org/2000/svg">
<path fill-rule="evenodd" clip-rule="evenodd" d="M16.6008 0.804613L20.1713 7.98724C20.3501 8.34953 20.6955 8.60236 21.0963 8.66095L29.0898 9.81565C29.4136 9.85882 29.705 10.0284 29.9038 10.2874C30.2769 10.773 30.2199 11.4606 29.7728 11.8784L23.9792 17.4808C23.6847 17.7583 23.5537 18.1653 23.6308 18.5615L25.0183 26.4672C25.1154 27.1224 24.6683 27.736 24.0131 27.8424C23.7418 27.884 23.4643 27.8408 23.2176 27.719L16.0982 23.9867C15.7405 23.7924 15.312 23.7924 14.9543 23.9867L7.78245 27.7391C7.18274 28.0443 6.44891 27.8177 6.12208 27.2303C5.9972 26.9929 5.95404 26.7231 5.9972 26.4595L7.3847 18.5538C7.45408 18.1592 7.32304 17.7537 7.03629 17.4747L1.21187 11.8738C0.737036 11.402 0.733952 10.6343 1.20724 10.1594C1.20879 10.1579 1.21033 10.1548 1.21187 10.1533C1.40766 9.97599 1.64816 9.85728 1.9087 9.81103L9.90379 8.65632C10.3031 8.59311 10.6469 8.34336 10.8288 7.98107L14.3962 0.804613C14.5396 0.513238 14.794 0.289696 15.1023 0.187947C15.4122 0.0846548 15.7513 0.109322 16.0427 0.25578C16.2817 0.374488 16.4775 0.567197 16.6008 0.804613Z" fill="#58708E"/>
</svg>
