<svg width="16" height="16" viewBox="0 0 16 16" fill="none" xmlns="http://www.w3.org/2000/svg">
<g opacity="0.3">
<path fill-rule="evenodd" clip-rule="evenodd" d="M8.47592 2.29389L10.0199 5.39989C10.0973 5.55655 10.2466 5.66589 10.4199 5.69122L13.8766 6.19055C14.0166 6.20922 14.1426 6.28255 14.2286 6.39455C14.3899 6.60455 14.3653 6.90189 14.1719 7.08255L11.6666 9.50522C11.5393 9.62522 11.4826 9.80122 11.5159 9.97255L12.1159 13.3912C12.1579 13.6746 11.9646 13.9399 11.6813 13.9859C11.5639 14.0039 11.4439 13.9852 11.3373 13.9326L8.25859 12.3186C8.10392 12.2346 7.91859 12.2346 7.76392 12.3186L4.66259 13.9412C4.40326 14.0732 4.08592 13.9752 3.94459 13.7212C3.89059 13.6186 3.87192 13.5019 3.89059 13.3879L4.49059 9.96922C4.52059 9.79855 4.46392 9.62322 4.33992 9.50255L1.82126 7.08055C1.61592 6.87655 1.61459 6.54455 1.81926 6.33922C1.81992 6.33855 1.82059 6.33722 1.82126 6.33655C1.90592 6.25989 2.00992 6.20855 2.12259 6.18855L5.57992 5.68922C5.75259 5.66189 5.90126 5.55389 5.97992 5.39722L7.52259 2.29389C7.58459 2.16789 7.69459 2.07122 7.82792 2.02722C7.96192 1.98255 8.10859 1.99322 8.23459 2.05655C8.33792 2.10789 8.42259 2.19122 8.47592 2.29389Z" stroke="#58708E" stroke-width="1.5" stroke-linecap="round" stroke-linejoin="round"/>
</g>
</svg>
