<svg width="25" height="21" viewBox="0 0 25 21" fill="none" xmlns="http://www.w3.org/2000/svg">
<path fill-rule="evenodd" clip-rule="evenodd" d="M18.4481 20.5432C19.8859 21.1723 20.4251 19.8542 20.4251 19.8542L24.2295 0.742595C24.1995 -0.545493 22.4621 0.233351 22.4621 0.233351L1.16373 8.59095C1.16373 8.59095 0.145241 8.95041 0.235108 9.57948C0.324974 10.2085 1.13377 10.5081 1.13377 10.5081L6.49581 12.3054C6.49581 12.3054 8.11341 17.6076 8.44292 18.626C8.74248 19.6146 9.01208 19.6445 9.01208 19.6445C9.31164 19.7644 9.58124 19.5547 9.58124 19.5547L13.0561 16.4093L18.4481 20.5432ZM19.3764 4.12753C19.3764 4.12753 20.1252 3.6782 20.0953 4.12753C20.0953 4.12753 20.2151 4.18744 19.8257 4.60682C19.4662 4.96629 10.9888 12.575 9.85049 13.5935C9.76063 13.6534 9.70072 13.7433 9.70072 13.8631L9.37121 16.6789C9.31129 16.9785 8.92187 17.0084 8.83201 16.7388L7.4241 12.1257C7.36418 11.9459 7.4241 11.7362 7.60383 11.6164L19.3764 4.12753Z" fill="#1139FF"/>
</svg>
