<svg width="23" height="24" viewBox="0 0 23 24" fill="none" xmlns="http://www.w3.org/2000/svg">
<path d="M20.4298 2.34153C19.8343 1.79413 17.4239 0.0414914 12.0507 0.0174827C12.0507 0.0174827 5.71717 -0.366658 2.62964 2.46638C0.910611 4.18541 0.30559 6.69673 0.243167 9.81787C0.180744 12.9342 0.0991141 18.7779 5.73157 20.3625H5.73638L5.73157 22.7778C5.73157 22.7778 5.69796 23.7574 6.3414 23.9542C7.11928 24.1943 7.58025 23.4501 8.32452 22.6482C8.73267 22.2064 9.29448 21.563 9.72183 21.0684C13.5728 21.3901 16.5355 20.6506 16.8716 20.5402C17.6495 20.2857 22.0527 19.7239 22.7682 13.8802C23.5077 7.86835 22.4081 4.06056 20.4298 2.34153ZM21.0828 13.4576C20.4778 18.3362 16.9101 18.6435 16.2522 18.8548C15.9737 18.946 13.3712 19.5942 10.0964 19.3782C10.0964 19.3782 7.65708 22.3216 6.8984 23.0851C6.77836 23.2052 6.63911 23.2532 6.54787 23.2292C6.41822 23.1956 6.37981 23.0419 6.38461 22.8162C6.38461 22.4897 6.40382 18.7971 6.40382 18.7971C6.39902 18.7971 6.39902 18.7971 6.40382 18.7971C1.63568 17.4767 1.91418 12.502 1.967 9.8995C2.01982 7.29695 2.5096 5.16016 3.96453 3.72444C6.57188 1.36197 11.9546 1.7125 11.9546 1.7125C16.4971 1.73171 18.6723 3.10021 19.1765 3.55638C20.8523 4.9969 21.707 8.43016 21.0828 13.4576Z" fill="#1139FF"/>
<path d="M14.2646 9.99074C14.1061 9.99074 13.9717 9.86589 13.962 9.70263C13.9092 8.67026 13.4243 8.16607 12.4351 8.11325C12.267 8.10365 12.1374 7.9596 12.147 7.79154C12.1566 7.62347 12.3006 7.49383 12.4687 7.50343C13.7748 7.57546 14.5046 8.32453 14.5719 9.66902C14.5815 9.83708 14.4518 9.98114 14.2838 9.98594C14.2742 9.99074 14.2694 9.99074 14.2646 9.99074Z" fill="#1139FF"/>
<path d="M15.82 10.5098H15.8152C15.6472 10.505 15.5127 10.3658 15.5175 10.1977C15.5415 9.16053 15.2438 8.32023 14.61 7.62877C13.9809 6.93732 13.1118 6.56278 11.9642 6.48115C11.7961 6.46675 11.6713 6.32269 11.6857 6.15463C11.7001 5.98657 11.8442 5.86173 12.0122 5.87613C13.3087 5.97217 14.3315 6.42353 15.0613 7.22062C15.796 8.02252 16.1513 9.02608 16.1273 10.2121C16.1225 10.3802 15.9833 10.5098 15.82 10.5098Z" fill="#1139FF"/>
<path d="M17.4142 11.1335C17.2462 11.1335 17.1117 10.9991 17.1117 10.831C17.0973 8.97273 16.5643 7.55621 15.4791 6.49502C14.4083 5.44824 13.0494 4.91524 11.4505 4.90084C11.2824 4.90084 11.1479 4.76159 11.1479 4.59353C11.1479 4.42546 11.2872 4.29102 11.4505 4.29102C13.2127 4.30542 14.7109 4.89604 15.8969 6.05806C17.0877 7.22009 17.6975 8.82387 17.7168 10.8214C17.7216 10.9943 17.5871 11.1335 17.4142 11.1335C17.419 11.1335 17.419 11.1335 17.4142 11.1335Z" fill="#1139FF"/>
<path d="M12.5068 13.7506C12.5068 13.7506 12.9341 13.7891 13.1646 13.5058L13.6112 12.9439C13.8272 12.6654 14.3506 12.4878 14.8596 12.7711C15.1429 12.9295 15.6567 13.2465 15.9736 13.4817C16.3145 13.7314 17.006 14.3076 17.0108 14.3124C17.3421 14.5909 17.419 14.9991 17.1933 15.4361C17.1933 15.4361 17.1933 15.4409 17.1933 15.4457C16.9628 15.8538 16.6507 16.238 16.2617 16.5933C16.2569 16.5933 16.2569 16.5981 16.2521 16.5981C15.9304 16.867 15.6135 17.0206 15.3062 17.0543C15.2678 17.0639 15.2246 17.0639 15.1669 17.0639C15.0325 17.0639 14.898 17.0446 14.7636 17.0014L14.754 16.987C14.2738 16.8526 13.4767 16.5165 12.1514 15.7818C11.2871 15.3064 10.5716 14.8214 9.96183 14.3365C9.64011 14.082 9.31359 13.7987 8.97747 13.4625C8.96786 13.4529 8.95346 13.4385 8.94385 13.4289C8.93425 13.4193 8.91984 13.4049 8.91024 13.3953C8.90064 13.3857 8.88623 13.3713 8.87663 13.3617C8.86702 13.3521 8.85262 13.3377 8.84302 13.3281C8.5117 12.992 8.22359 12.6654 7.9691 12.3437C7.48412 11.7387 6.99914 11.0184 6.52377 10.1541C5.7891 8.82404 5.45298 8.02695 5.31853 7.55158L5.30412 7.54197C5.26091 7.40752 5.2417 7.27307 5.2417 7.13862C5.2417 7.081 5.2417 7.03779 5.2513 6.99937C5.28972 6.68726 5.44337 6.37514 5.70747 6.05343C5.70747 6.04863 5.71227 6.04863 5.71227 6.04382C6.0676 5.65008 6.45174 5.34277 6.85989 5.11228C6.85989 5.11228 6.86469 5.11228 6.8695 5.11228C7.30165 4.8866 7.7098 4.96343 7.99311 5.29475C7.99311 5.29475 8.57412 5.991 8.82381 6.33193C9.0591 6.65365 9.37601 7.16263 9.53447 7.44594C9.81777 7.95492 9.64011 8.47831 9.36161 8.69439L8.7998 9.14096C8.5165 9.37144 8.55491 9.7988 8.55491 9.7988C8.55491 9.7988 9.38561 12.9584 12.5068 13.7506Z" fill="#1139FF"/>
</svg>
