<svg width="24" height="24" viewBox="0 0 24 24" fill="none" xmlns="http://www.w3.org/2000/svg">
<path d="M7.89058 16.3826H5.77823C4.7607 16.3826 4.07458 15.6869 3.93588 14.5392C3.73788 13.1267 3.75694 10.5749 3.93588 9.13281C4.07458 8.13752 4.7607 7.35399 5.77823 7.35399H7.89058L11.6039 4.31622C11.9289 4.03987 12.4912 3.7794 12.8332 3.78681C13.5563 3.76458 14.2266 4.29081 14.4839 5.14952C14.6258 5.69693 14.6649 6.3354 14.7369 6.92622C14.8089 7.50116 14.8513 7.44928 14.8629 9.18258" stroke="#200E32" stroke-width="1.5" stroke-linecap="round" stroke-linejoin="round"/>
<path d="M14.8598 14.1914C14.8407 15.5276 14.7952 16.3408 14.7369 16.8099C14.6649 17.4007 14.6438 17.9841 14.4839 18.5855C14.2266 19.4453 13.5564 19.9705 12.8332 19.9482C12.4912 19.9567 12.0073 19.7481 11.6822 19.4728L10.2856 18.3335" stroke="#200E32" stroke-width="1.5" stroke-linecap="round" stroke-linejoin="round"/>
<path d="M20.9953 3.29395L3.84766 20.4416" stroke="#200E32" stroke-width="1.5" stroke-linecap="round" stroke-linejoin="round"/>
</svg>
