<svg width="25" height="24" viewBox="0 0 25 24" fill="none" xmlns="http://www.w3.org/2000/svg">
<path d="M20.7919 3.5027C18.5865 1.23243 15.5378 0 12.4243 0C5.8081 0 0.489181 5.38378 0.554046 11.9351C0.554046 14.0108 1.13783 16.0216 2.1108 17.8378L0.424316 24L6.71621 22.3784C8.46756 23.3514 10.4135 23.8054 12.3595 23.8054C18.9108 23.8054 24.2297 18.4216 24.2297 11.8703C24.2297 8.69189 22.9973 5.70811 20.7919 3.5027ZM12.4243 21.7946C10.673 21.7946 8.92161 21.3405 7.42972 20.4324L7.04053 20.2378L3.27837 21.2108L4.25134 17.5135L3.99188 17.1243C1.13783 12.5189 2.49999 6.42162 7.17026 3.56757C11.8405 0.713513 17.873 2.07568 20.727 6.74595C23.5811 11.4162 22.2189 17.4486 17.5486 20.3027C16.0567 21.2757 14.2405 21.7946 12.4243 21.7946ZM18.1324 14.5946L17.4189 14.2703C17.4189 14.2703 16.3811 13.8162 15.7324 13.4919C15.6676 13.4919 15.6027 13.427 15.5378 13.427C15.3432 13.427 15.2135 13.4919 15.0838 13.5568C15.0838 13.5568 15.0189 13.6216 14.1108 14.6595C14.0459 14.7892 13.9162 14.8541 13.7865 14.8541H13.7216C13.6567 14.8541 13.527 14.7892 13.4622 14.7243L13.1378 14.5946C12.4243 14.2703 11.7757 13.8811 11.2568 13.3622C11.127 13.2324 10.9324 13.1027 10.8027 12.973C10.3486 12.5189 9.89459 12 9.57026 11.4162L9.5054 11.2865C9.44053 11.2216 9.44053 11.1568 9.37567 11.027C9.37567 10.8973 9.37567 10.7676 9.44053 10.7027C9.44053 10.7027 9.69999 10.3784 9.89459 10.1838C10.0243 10.0541 10.0892 9.85946 10.2189 9.72973C10.3486 9.53514 10.4135 9.27568 10.3486 9.08108C10.2838 8.75676 9.5054 7.0054 9.3108 6.61622C9.18107 6.42162 9.05134 6.35676 8.85675 6.29189H8.66215C8.53242 6.29189 8.33783 6.29189 8.14324 6.29189C8.01351 6.29189 7.88378 6.35676 7.75405 6.35676L7.68918 6.42162C7.55945 6.48649 7.42972 6.61622 7.29999 6.68108C7.17026 6.81081 7.1054 6.94054 6.97567 7.07027C6.52161 7.65405 6.26215 8.36757 6.26215 9.08108C6.26215 9.6 6.39188 10.1189 6.58648 10.573L6.65134 10.7676C7.23513 12 8.01351 13.1027 9.05134 14.0757L9.3108 14.3351C9.5054 14.5297 9.69999 14.6595 9.82972 14.8541C11.1919 16.0216 12.7486 16.8649 14.5 17.3189C14.6946 17.3838 14.954 17.3838 15.1486 17.4486C15.3432 17.4486 15.6027 17.4486 15.7973 17.4486C16.1216 17.4486 16.5108 17.3189 16.7703 17.1892C16.9649 17.0595 17.0946 17.0595 17.2243 16.9297L17.354 16.8C17.4838 16.6703 17.6135 16.6054 17.7432 16.4757C17.873 16.3459 18.0027 16.2162 18.0676 16.0865C18.1973 15.827 18.2622 15.5027 18.327 15.1784C18.327 15.0486 18.327 14.8541 18.327 14.7243C18.327 14.7243 18.2622 14.6595 18.1324 14.5946Z" fill="#1139FF"/>
</svg>
